<?xml version="1.0" encoding="utf-8"?>
<!-- Generator: Adobe Illustrator 21.0.1, SVG Export Plug-In . SVG Version: 6.00 Build 0)  -->
<svg version="1.1" id="Layer_1" xmlns="http://www.w3.org/2000/svg" xmlns:xlink="http://www.w3.org/1999/xlink" x="0px" y="0px"
	 viewBox="0 0 52.12 169.85" enable-background="new 0 0 52.12 169.85" xml:space="preserve">
<polygon fill="#F28159" points="35.13,37.51 10.75,35.46 7.94,69.7 32.32,71.75 "/>
<polygon fill="#DD603A" points="9.45,51.29 22.98,51.91 33.87,52.87 34.79,41.7 10.28,41.19 "/>
<path fill="#F28159" d="M8.7,49.6c0,0-7.05-10.55-7.05-10.55l2.61-19.34l32.3-15.64c0,0,5.81,0.17,5.81,0.17
	c2.37,10.86,7.25,21.73,2.99,32.59c-2.34,5.95-6.6,14.52-13.79,14.81c-2.78,0.11-6.14-1.69-9.07-1.87
	C20.42,49.64,9.93,51.45,8.7,49.6"/>
<path fill="#DD603A" d="M4.26,19.72l-1.05,7.73l6.13,9.18c21.55,2.18,32.49-8.12,36.99-14.19L42.37,4.25l-5.81-0.17L4.26,19.72z"/>
<path fill="#F28159" d="M47.06,12.27c0.93,1.82,0.23,4.07-1.58,5.01l-4.53,2.37c-1.81,0.94-4.03,0.23-4.96-1.6s-0.23-4.07,1.58-5.01
	l4.53-2.37C43.91,9.73,46.13,10.44,47.06,12.27"/>
<g opacity="0.3">
	<g>
		<defs>
			<rect id="SVGID_1_" x="38.08" y="12.47" width="5.85" height="5.68"/>
		</defs>
		<clipPath id="SVGID_2_">
			<use xlink:href="#SVGID_1_"  overflow="visible"/>
		</clipPath>
		<path clip-path="url(#SVGID_2_)" fill="#FFFFFF" d="M40.17,18.16l2.5-1.28c1.13-0.58,1.59-1.98,1.01-3.13
			c-0.58-1.15-1.96-1.6-3.1-1.02l-2.5,1.28L40.17,18.16z"/>
	</g>
</g>
<path fill="#F28159" d="M42.71,2.43c1.13,2.2,0.27,4.91-1.91,6.05l-5.46,2.85c-2.18,1.14-4.86,0.28-5.98-1.92
	c-1.13-2.2-0.27-4.91,1.9-6.05l5.46-2.86C38.9-0.64,41.58,0.23,42.71,2.43"/>
<g opacity="0.3">
	<g>
		<defs>
			<rect id="SVGID_3_" x="31.87" y="2.68" width="7.05" height="6.86"/>
		</defs>
		<clipPath id="SVGID_4_">
			<use xlink:href="#SVGID_3_"  overflow="visible"/>
		</clipPath>
		<path clip-path="url(#SVGID_4_)" fill="#FFFFFF" d="M34.38,9.53l3.02-1.55c1.37-0.7,1.92-2.39,1.22-3.77
			c-0.69-1.38-2.37-1.93-3.73-1.23l-3.02,1.55L34.38,9.53z"/>
	</g>
</g>
<path fill="#F28159" d="M48.23,19.34c1.48,1.4,1.56,3.76,0.18,5.26l-3.48,3.76c-1.39,1.5-3.72,1.58-5.2,0.18
	c-1.48-1.4-1.56-3.76-0.18-5.26l3.48-3.76C44.42,18.02,46.75,17.94,48.23,19.34"/>
<g opacity="0.3">
	<g>
		<defs>
			<rect id="SVGID_5_" x="40.35" y="21.25" width="5.9" height="5.98"/>
		</defs>
		<clipPath id="SVGID_6_">
			<use xlink:href="#SVGID_5_"  overflow="visible"/>
		</clipPath>
		<path clip-path="url(#SVGID_6_)" fill="#FFFFFF" d="M43.69,27.23l1.93-2.05c0.88-0.93,0.84-2.4-0.09-3.29
			c-0.92-0.88-2.38-0.85-3.26,0.09l-1.93,2.05L43.69,27.23z"/>
	</g>
</g>
<path fill="#F28159" d="M50.96,28.69c1.48,1.4,1.56,3.76,0.18,5.26l-3.48,3.76c-1.39,1.5-3.72,1.58-5.2,0.18
	c-1.49-1.4-1.56-3.76-0.18-5.26l3.48-3.76C47.14,27.37,49.47,27.29,50.96,28.69"/>
<g opacity="0.3">
	<g>
		<defs>
			<rect id="SVGID_7_" x="43.07" y="30.59" width="5.9" height="5.98"/>
		</defs>
		<clipPath id="SVGID_8_">
			<use xlink:href="#SVGID_7_"  overflow="visible"/>
		</clipPath>
		<path clip-path="url(#SVGID_8_)" fill="#FFFFFF" d="M46.41,36.58l1.93-2.05c0.87-0.93,0.84-2.4-0.09-3.29
			c-0.92-0.88-2.38-0.85-3.26,0.09l-1.93,2.05L46.41,36.58z"/>
	</g>
</g>
<path fill="#F28159" d="M8.36,0.33c0,0,3.39,1.45,3.54,6.11l-1.29,8.09l0.13,6.86l1.17,3.51c3.08,2.52,3.14,3.13,3.85,7.12
	c0.65,3.64,3,9.35-0.16,12.31c-2.85,2.66-8.12,2.03-10.75-0.57c-4.46-4.43-5.47-12.08-4.51-17.99c0-0.01,2.28-14.05,2.28-14.05
	L8.36,0.33z"/>
<polygon fill="#F28159" points="33.81,154.78 8.64,154.9 8.34,64.44 33.5,64.33 "/>
<rect x="4.44" y="67.87" fill="#C1E9F7" width="33.13" height="101.98"/>
</svg>
