<?xml version="1.0" encoding="utf-8"?>
<!-- Generator: Adobe Illustrator 21.0.2, SVG Export Plug-In . SVG Version: 6.00 Build 0)  -->
<svg version="1.1" id="Layer_1" xmlns="http://www.w3.org/2000/svg" xmlns:xlink="http://www.w3.org/1999/xlink" x="0px" y="0px"
	 viewBox="0 0 441.1 208.6" style="enable-background:new 0 0 441.1 208.6;" xml:space="preserve">
<style type="text/css">
	.st0{fill:#3F5D73;}
	.st1{fill:#0E2A3E;}
	.st2{fill:#C45533;}
	.st3{fill:#DD603A;}
	.st4{fill:#C0E8F6;}
	.st5{fill:#F28159;}
	.st6{fill:#E6E7E8;}
	.st7{fill:#308A8E;}
	.st8{fill:#295D60;}
	.st9{fill:#43BDD7;}
	.st10{fill:#FFFFFF;}
</style>
<g id="slot_1_">
	<path id="Path_999_1_" class="st0" d="M326,40c0-13.2,8-25.3,12.3-29.6c4.2-4.2,10.1-5.6,14.1-5.6c3.4,0,7.2-0.4,9.9,1.4
		c8.3,5.6,10,19.6,10,33.8l0,126.9c0,13.7,1.8,29.9-5.8,33.7c-2.1,1.1-7.2,1.4-8.4,1.4c-1.3,0-6.2,0-7,0
		c-12.7,0-24.9-15.8-24.9-35.1L326,40z"/>
	<path id="Path_999-Copy_1_" class="st1" d="M335.6,166.9l0-126.9c0-19.3,10.4-34.9,23.1-34.9c1.5,0,10.7,1.1,16.2,8.2
		c5.5,7,6.9,19.6,6.9,26.8l0,126.9c0,6.2,0,18.6-5.5,26.6c-5.5,8-15.1,8.6-17,8.6c-12.7,0-23.8-15.8-23.8-35.2H335.6z"/>
</g>
<g id="slot">
	<path id="Path_999" class="st0" d="M115.4,167c0,19.3-12.3,35.1-24.9,35.1c-0.8,0-5.8,0-7,0c-1.3,0-6.3-0.3-8.4-1.4
		c-7.6-3.8-5.8-20-5.8-33.7l0-126.9c0-14.2,1.7-28.2,10-33.8c2.7-1.8,6.5-1.4,9.9-1.4c3.9,0,9.9,1.4,14.1,5.6s12.3,16.3,12.3,29.6
		L115.4,167z"/>
	<path id="Path_999-Copy" class="st1" d="M105.9,167c0,19.4-11.1,35.2-23.8,35.2c-2,0-11.5-0.6-17-8.6c-5.5-8-5.5-20.4-5.5-26.6
		l0-126.9c0-7.2,1.4-19.7,6.9-26.8c5.5-7,14.6-8.2,16.2-8.2c12.7,0,23.1,15.6,23.1,34.9l0,126.9H105.9z"/>
</g>
<g id="righthand_1_" transform="translate(89.864620, 83.031929) rotate(56.000000) translate(-89.864620, -83.031929) translate(41.364620, -38.968071)">
	<g id="righthand" transform="translate(15.000000, 127.000000)">
		<polygon id="Page-1_5_" class="st2" points="172.2,-63.8 200.4,-63.8 200.4,-66.6 172.2,-66.6 		"/>
		<path id="Fill-1" class="st3" d="M161.1-62.6c0-4.6,0-13.7,0-13.7l-12.9-10.6c0,0,7.1-12.5,9.9-15.4c2.9-3,11.2-8.7,11.2-8.7
			l1-32.2l39.2,0.5l-1,32.4l2.6,9.6c0,0-0.1,24.5-0.1,36.9c0,3.8-16.6,20.5-27.3,20.1C172.8-44,161.1-53.9,161.1-62.6z"/>
		<path id="Path_3" class="st2" d="M169.2-110.8c-0.2,0.4,7.5-2.7,13.1-3.1c1.7,0,3.5,0.3,5.1,1c2-0.7,4.1-1,6.3-0.7
			c5.4,1,7.9,3.5,7.8,3s-5.7-4.2-7.5-4.7s-6.3-0.1-6.3-0.1c-1.7-0.2-3.4-0.2-5.1-0.2C181.3-115.5,169.4-111.1,169.2-110.8z"/>
		<polygon id="Page-1_4_" class="st2" points="204.7,-140.6 203.5,-114.2 203.5,-108.9 207.5,-99.4 210.8,-67.3 211,-100.5 
			208.4,-109.6 209.2,-141.6 		"/>
		<path id="Path_4" class="st2" d="M184.9-106.5c-0.8-0.6-3,7.1-6.5,11.4c-3.5,4.2-3.4,4.1-7.8,7.2c-4.4,3.1-7.9,3.5-7.4,3.9
			c0.5,0.4,14.6-2,16.4-3.7C180.8-88.9,185.7-105.9,184.9-106.5z"/>
	</g>
	<polygon id="rightarm" class="st4" points="234.8,-9 172.7,-11.1 179,-142.9 243.1,-114.4 	"/>
</g>
<g id="lefthand_1_" transform="translate(130.609438, 81.599639) rotate(7.000000) translate(-130.609438, -81.599639) translate(7.609438, 14.599639)">
	
		<g id="lefthand" transform="translate(164.099185, 79.702962) scale(-1, 1) rotate(-295.000000) translate(-164.099185, -79.702962) translate(133.599185, 38.202962)">
		<polygon id="Page-1" class="st3" points="50.3,124.7 79,124.8 79,121.9 50.3,121.9 		"/>
		<path id="Fill-1-Copy" class="st5" d="M89.6,125.7l-11.4-0.2l0.3-2.6c0-0.5-0.4-0.9-0.9-0.9c-0.6,0-1,0.4-1,0.9l0,2.9l-11.4,0.4
			l0-3.3c0-0.5-0.4-0.9-0.9-0.9c-0.5,0-0.9,0.4-0.9,0.9c0,0,0.2,3.4,0.1,3.8c0,0-11.4,0.7-11.4,0.4c0-0.1-0.1-4.2-0.1-4.2
			c0-0.5-0.4-0.9-0.9-0.9c-0.5,0-0.9,0.4-0.9,0.9l0.1,4.1c0,0-9.1-0.2-11.4,0.2c0,0-4.2-9.8-6.4-12.7c-2.2-2.9-2.6-12.2-2-15.4
			c0.6-3.2,7.8-12.4,7.8-12.4l10.3-10.3l-0.3-31.2l36.7,1.7l-1.1,30.4l5.8,10.1L89.6,125.7z"/>
		<polygon id="Page-1_1_" class="st3" points="79,46.6 78.7,72.4 78.7,77.7 84.8,87.4 89.8,121.2 89.8,87.4 84.9,77.7 85.2,46.8 		
			"/>
	</g>
	<g id="leftarm" transform="translate(0.000000, 0.000000)">
		
			<rect id="Rectangle_1" x="125.4" y="108" transform="matrix(-0.5591 0.8291 -0.8291 -0.5591 329.1994 54.9267)" class="st6" width="49.2" height="14.1"/>
		<polygon id="Path_6" class="st7" points="156.4,84.3 135.1,142.8 44.1,108.8 49.4,47.9 		"/>
		<polygon id="Path_8" class="st8" points="145.2,114.3 136.7,137.5 45.4,105.6 47.4,82.4 		"/>
		<path id="Path_9" class="st9" d="M155.1,105.3c-1.7-0.4-2.9-1.9-3.1-3.6c-0.2-1.7,0.7-3.4,2.2-4.2c1.5-0.8,3.4-0.6,4.7,0.6
			c1.3,1.1,1.8,3,1.2,4.6C159.5,104.8,157.2,106,155.1,105.3"/>
	</g>
	<path id="leftfinger4" class="st5" d="M206.3,164.1c0.8,0.5,1.6,1.1,2.4,1.6c3.6,1.8,7.2,3.5,10.9,5.3c0,0,9.4,4.4,10.7,4.7
		c1.3,0.4,2.6-0.1,4-0.5c1.4-0.4,2.1-1.3,2.7-2.4c1.4-2.4,0.3-6.1-0.9-6.9c-1.1-0.9-10.7-4.7-10.7-4.7l-9.9-4.8
		C212.5,159,209.4,161.5,206.3,164.1z"/>
	<path id="leftfinger3" class="st5" d="M216.6,155.1c2.5,1.2,4.9,2.4,7.4,3.6c3.6,1.8,7.2,3.5,10.9,5.3c0,0,9.4,4.4,10.7,4.7
		c1.3,0.4,2.6-0.1,4-0.5c0.4-0.1,0.8-0.3,1.1-0.5c0.5-0.3,1.1-0.9,1.6-1.8c1-1.8,0.9-4.3-0.3-6.1c-0.6-0.8-1.3-1.3-1.8-1.5
		c-3.1-1.4-6.2-2.8-9.4-4.3c-6.6-3-13-6.1-19.4-9.2C219.8,148.3,218.2,151.7,216.6,155.1z"/>
	<path id="leftfinger2" class="st5" d="M224.7,144.4c3.2,1.5,6.4,3,9.6,4.5c3.7,1.8,7.3,3.5,10.9,5.3c0,0,9.4,4.4,10.7,4.7
		c1.3,0.4,2.6-0.1,4-0.5c0.4-0.1,0.8-0.3,1.1-0.5c0.5-0.3,1.1-0.9,1.6-1.8c1-1.8,0.9-4.3-0.3-6.1c-0.6-0.8-1.3-1.3-1.8-1.5
		c-3.1-1.4-6.2-2.8-9.4-4.3c-0.2-0.1-4-1.8-11.5-5.4c-3.3-1.6-8.3-3.9-11.7-5.5c-1.2,2.6-2.4,5.1-3.6,7.7L224.7,144.4L224.7,144.4z"
		/>
	<g id="leftfinger1" transform="translate(224.232184, 90.665978) rotate(-7.000000) translate(-224.232184, -90.665978) ">
		<path id="path-1_1_" class="st5" d="M233,133.9c2.5,1.2,8.4,3.9,10.8,5.1c3.6,1.8,7.2,3.5,10.9,5.3c0,0,9.4,4.4,10.7,4.7
			c1.3,0.4,2.6-0.1,4-0.5c0.4-0.1,0.8-0.3,1.1-0.5c0.5-0.3,1.1-0.9,1.6-1.8c1-1.8,0.9-4.3-0.3-6.1c-0.6-0.8-1.3-1.3-1.8-1.5
			c-3.1-1.4-6.2-2.8-9.4-4.3c-6.6-3-16.5-7.6-22.8-10.7C236.2,127.1,234.6,130.5,233,133.9z"/>
	</g>
</g>
<rect x="0" y="5.2" class="st10" width="59.4" height="196.8"/>
<rect x="381.8" y="8" class="st10" width="59.4" height="196.8"/>
<g id="righthand_x5F_fingers">
	
		<g id="right_hand_fingers" transform="translate(35.846712, 28.375475) rotate(-4.000000) translate(-35.846712, -28.375475) translate(-3.653288, -21.124525)">
		<polygon id="rightfingersshadow" class="st2" points="181.4,208.3 218.4,234.3 213.4,237.3 194.4,227.3 182.4,219.3 		"/>
		<g id="rightfinger1.2" transform="translate(-0.000000, 61.000000)">
			<path id="Path_11" class="st3" d="M184.7,163.2c3.3,0.3,6.3-2.1,6.7-5.5l0.9-8.4c0-1.1-0.2-2.2-0.6-3.3c-0.3-1.9-1.9-3.3-3.8-3.3
				c-3.3-0.3-5.8,2.1-6.2,5.5l-0.9,8.4c-0.3,3.3,1.6,6.3,4.9,6.6"/>
			<path id="Path_14" class="st5" d="M189.8,147.4l-0.8,3.5c-0.2,0.8-0.6,1.5-1.3,1.9s-1.5,0.6-2.3,0.4c-0.8-0.2-1.4-0.6-1.9-1.3
				c-0.4-0.7-0.6-1.4-0.4-2.2l0.8-3.5L189.8,147.4z"/>
		</g>
		<g id="rightfinger2.2" transform="translate(10.000000, 66.000000)">
			<path id="Path_10" class="st3" d="M183.9,163.5c3.3,0.8,5.8-1.2,6.6-4.6l2.2-8.4c0.8-3.3-0.2-6.7-3.5-7.7
				c-3.3-0.8-5.8,1.2-6.6,4.6l-2.2,8.4C179.4,159.2,180.4,162.7,183.9,163.5"/>
			<path id="Path_16" class="st5" d="M190.5,147.5l-0.8,3.5c-0.2,0.8-0.6,1.5-1.3,1.9s-1.5,0.6-2.3,0.4c-0.8-0.2-1.4-0.6-1.9-1.3
				c-0.4-0.7-0.6-1.4-0.4-2.2l0.8-3.5L190.5,147.5z"/>
		</g>
		<g id="rightfinger3.2" transform="translate(20.000000, 73.000000)">
			<path id="Path_12" class="st3" d="M181.8,160.9c2.9,1.9,5.9,1.2,7.8-1.7l4.9-7.2c1.9-2.9,2.3-6.7-0.6-8.7
				c-2.6-1.8-5.1-1.3-7.3,1.1c-0.1,0.1-0.3,0.4-5.4,7.9C179.3,155.1,179,159,181.8,160.9"/>
			<path id="Path_17" class="st5" d="M193.8,148.6l-2.1,3c-0.4,0.7-1.1,1.1-1.9,1.3c-0.8,0.1-1.6,0-2.2-0.5
				c-0.7-0.4-1.1-1.1-1.2-1.9s0-1.6,0.5-2.2l2.1-3L193.8,148.6z"/>
		</g>
		<g id="rightfinger4.2" transform="translate(32.000000, 81.000000)">
			<path id="Path_13" class="st3" d="M178.3,154.9c0.9,1,2.1,1.7,3.4,1.8s2.7-0.3,3.7-1.1l5.3-4.5c2.1-1.8,2.4-4.9,0.6-7.1
				c-1.8-2.1-4.9-2.4-7.1-0.6l-5.3,4.5c-1,0.8-1.7,2.1-1.8,3.4C177.1,152.6,177.5,153.9,178.3,154.9"/>
			<path id="Path_18" class="st5" d="M191.9,148.7l-2,2.3c-0.4,0.5-1,0.8-1.7,0.9c-0.7,0.1-1.3-0.1-1.8-0.6c-0.5-0.4-0.8-1-0.9-1.7
				s0.1-1.3,0.5-1.8l2-2.3L191.9,148.7z"/>
		</g>
		<g id="rightthumb2" transform="translate(2.358823, 0.515868)">
			<path id="light_thumb" class="st3" d="M179.4,172.3c1-1,9.8-2.7,20.2-5.4c10.4-2.7,9.1-2.8,18.2-4.3c5.5-0.9,11.1,0.4,15.8,3.5
				l11.8,6c3.9,2.3,3.7,7.9,0.5,11.7c0,0-7.9-1.3-11.9-2.6c-4-1.4-4.5-2.9-4.5-2.9c-2,1.4-4.3,2-6.7,1.9c-4.4-0.1-11-2.2-11-2.2
				l-22.9,3.2c0,0-4.3,0.1-6.9-1.9C179.4,177.2,178.4,173.3,179.4,172.3z"/>
			<path id="Fill-1_1_" class="st2" d="M201.7,179.2c-16.7,5.7-20.6,1.7-22.3-0.9c-1-1.5-0.9-4.4,0-6c-0.2,1.7,0.7,5.2,3,7
				s4.4,0.9,7,1c2.2,0.1,12-3,12-3l11-1c0,0,4.8,1.5,9,2c4.2,0.5,8,0,8,0s-0.5,0.5-2,1c-1.5,0.5-4,1-5,1c-2.1,0.1-10-2-10-2"/>
			<path id="Path_15" class="st5" d="M181.3,171.9l3.1-0.9l2.7-0.8c0.2,1.1-0.2,2.2-1,3c-1.4,1.1-4.4,1.4-4.4,1.4L181.3,171.9z"/>
		</g>
	</g>
</g>
</svg>
