<?xml version="1.0" encoding="utf-8"?>
<!-- Generator: Adobe Illustrator 21.0.2, SVG Export Plug-In . SVG Version: 6.00 Build 0)  -->
<svg version="1.1" id="Layer_1" xmlns="http://www.w3.org/2000/svg" xmlns:xlink="http://www.w3.org/1999/xlink" x="0px" y="0px"
	 viewBox="0 0 267.1 244.8" style="enable-background:new 0 0 267.1 244.8;" xml:space="preserve">
<style type="text/css">
	.st0{fill:#3F5D73;}
	.st1{fill:#0E2A3E;}
	.st2{fill:#F28159;}
	.st3{fill:#BCBEC0;}
	.st4{fill:#FFFFFF;}
	.st5{opacity:0.4;}
	.st6{fill:#231F20;}
	.st7{fill:#DD603A;}
	.st8{fill:#43BDD7;}
	.st9{fill:#39A1B7;}
	.st10{fill:#FFCD00;}
	.st11{fill:#EDAB07;}
	.st12{fill:#308A8E;}
	.st13{fill:#E6E7E8;}
	.st14{fill:#909191;}
	.st15{fill:#485656;}
	.st16{opacity:0.3;}
	.st17{fill:#C1E9F7;}
	.st18{fill:#3793A5;}
	.st19{fill:#328193;}
</style>
<g id="slot">
	<path id="Path_999" class="st0" d="M219.4,169c26.1,0,47.5,16.6,47.5,33.7c0,1.1,0,7.8,0,9.5s-0.4,8.6-1.9,11.4
		c-5.1,10.3-27.1,7.8-45.6,7.8H47.7c-19.3,0-38.1-2.3-45.7-13.5c-2.5-3.6-1.9-8.8-1.9-13.3c0-5.3,1.9-13.3,7.6-19.1
		c5.7-5.7,22.1-16.6,40-16.6h171.7V169z"/>
	<path id="Path_999-Copy" class="st1" d="M219.4,181.8c26.3,0,47.7,15.1,47.7,32.2c0,2.7-0.8,15.6-11.6,23.1
		c-10.9,7.4-27.6,7.4-36,7.4H47.7c-9.7,0-26.7-1.9-36.2-9.3S0.4,215.4,0.4,213.3c0-17.2,21.2-31.3,47.3-31.3h171.7V181.8z"/>
</g>
<g id="arm3">
	<rect id="Rectangle_14_2_" x="186.7" y="111.3" class="st2" width="33.7" height="46.9"/>
	<path id="Path_31_2_" class="st3" d="M190.5,151.7c0,2.7-2.1,4.8-4.8,4.8s-4.8-2.1-4.8-4.8c0-2.7,2.1-4.8,4.8-4.8
		C188.3,146.9,190.4,149,190.5,151.7"/>
	<path id="Path_32_2_" class="st4" d="M187.8,149.3c0,0.8-0.6,1.4-1.4,1.4s-1.4-0.6-1.4-1.4s0.6-1.4,1.4-1.4
		S187.8,148.5,187.8,149.3"/>
	<path id="Path_34_2_" class="st3" d="M185.7,155.6c0,2.7-2.1,4.8-4.8,4.8s-4.8-2.1-4.8-4.8s2.1-4.8,4.8-4.8c1.3,0,2.5,0.5,3.4,1.4
		C185.2,153.1,185.7,154.3,185.7,155.6"/>
	<path id="Path_35_2_" class="st4" d="M183.2,153.1c0,0.8-0.6,1.4-1.4,1.4c-0.8,0-1.4-0.6-1.4-1.4s0.6-1.4,1.4-1.4
		C182.5,151.7,183.2,152.3,183.2,153.1"/>
	<path id="Path_36_2_" class="st3" d="M231.5,147.1c0,2.3-1.3,4.4-3.5,5.3c-2.1,0.9-4.6,0.5-6.2-1.2c-1.7-1.6-2.2-4.1-1.3-6.2
		c0.9-2.1,2.9-3.6,5.2-3.6c1.5,0,3,0.5,4.1,1.6C230.9,144.1,231.5,145.6,231.5,147.1"/>
	<path id="Path_37_2_" class="st4" d="M228.3,144.2c0,0.9-0.7,1.6-1.6,1.6c-0.9,0-1.6-0.7-1.6-1.6c0-0.9,0.7-1.6,1.6-1.6
		S228.3,143.3,228.3,144.2"/>
	<polygon id="Path_38_2_" class="st2" points="221.4,244.6 185.8,244.8 186.7,144.9 220.3,132.3 	"/>
	<g id="Group_22_2_" transform="translate(12.365000, 85.297000)" class="st5">
		<g id="Group_21_2_">
			<g id="Group_20_2_">
				<path id="Path_39_2_" class="st6" d="M208.2,67.5c-1.7,0.7-2.4,2.1-2.8,4c-0.6-0.2-1.1-0.3-1.7-0.3c-2.5,0-4.6,1.6-5.4,4
					c-1.1-1-2.5-1.6-4-1.6c-2.8,0-5.1,2-5.6,4.7c-1.1-0.9-2.4-1.4-3.8-1.4c-2.8,0-5.2,2.1-5.6,4.9c-1.1-1.1-2.6-1.7-4.1-1.7
					c-0.7,0-1.4,0.1-2,0.4v10.7c0.6,0.3,1.3,0.4,2,0.4c2.8,0,5.2-2.1,5.6-4.9c1.5,1.5,3.7,2.1,5.8,1.4s3.6-2.3,4-4.4
					c1.1,0.9,2.4,1.4,3.8,1.4c2.5,0,4.6-1.6,5.4-4c1.1,1,2.5,1.6,4,1.6c1.9,0,3.7-1.1,4.5-2.8L208.2,67.5L208.2,67.5z"/>
			</g>
		</g>
	</g>
	<path id="Path_40_2_" class="st3" d="M183.9,163.5c0,2.3-1.3,4.4-3.5,5.3c-2.1,0.9-4.6,0.5-6.2-1.2s-2.2-4.1-1.3-6.2
		c0.9-2.1,2.9-3.6,5.2-3.6c1.5-0.1,3,0.5,4.1,1.6S183.9,162,183.9,163.5"/>
	<path id="Path_41_2_" class="st4" d="M180.8,160.6c0,0.9-0.7,1.6-1.6,1.6s-1.6-0.7-1.6-1.6c0-0.9,0.7-1.6,1.6-1.6
		S180.8,159.7,180.8,160.6"/>
	<path id="Path_42_2_" class="st3" d="M229.1,153.9c0,2.3-1.3,4.4-3.5,5.3c-2.1,0.9-4.6,0.5-6.2-1.2c-1.7-1.6-2.2-4.1-1.3-6.2
		c0.9-2.1,2.9-3.6,5.2-3.6c1.5-0.1,3,0.5,4.1,1.6C228.5,150.9,229.1,152.4,229.1,153.9"/>
	<path id="Path_43_2_" class="st4" d="M225.9,151c0,0.9-0.7,1.6-1.6,1.6c-0.9,0-1.6-0.7-1.6-1.6c0-0.9,0.7-1.6,1.6-1.6
		S225.9,150.1,225.9,151"/>
	<path id="Path_44_2_" class="st3" d="M221.7,158.3c0,2.3-1.3,4.4-3.5,5.3c-2.1,0.9-4.6,0.5-6.2-1.2c-1.7-1.6-2.2-4.1-1.3-6.2
		c0.9-2.1,2.9-3.6,5.2-3.6c1.5,0,3,0.6,4.1,1.6C221.1,155.2,221.7,156.8,221.7,158.3"/>
	<path id="Path_45_2_" class="st4" d="M218.6,155.3c0,0.9-0.7,1.6-1.6,1.6c-0.9,0-1.6-0.7-1.6-1.6c0-0.9,0.7-1.6,1.6-1.6
		C217.9,153.8,218.6,154.5,218.6,155.3"/>
	<path id="Path_46_2_" class="st3" d="M212.4,160.7c0,2.3-1.3,4.4-3.5,5.3c-2.1,0.9-4.6,0.5-6.2-1.2c-1.7-1.6-2.2-4.1-1.3-6.2
		c0.9-2.1,2.9-3.6,5.2-3.6c1.5,0,3,0.6,4.1,1.6S212.4,159.2,212.4,160.7"/>
	<path id="Path_47_2_" class="st4" d="M209.3,157.7c0,0.9-0.7,1.6-1.6,1.6c-0.9,0-1.6-0.7-1.6-1.6c0-0.9,0.7-1.6,1.6-1.6
		C208.6,156.2,209.3,156.9,209.3,157.7"/>
	<path id="Path_48_2_" class="st3" d="M202.9,164c0,2.3-1.3,4.4-3.5,5.3c-2.2,0.9-4.6,0.5-6.2-1.2c-1.7-1.6-2.2-4.1-1.3-6.2
		c0.9-2.1,2.9-3.6,5.2-3.6c1.5,0,3,0.6,4.1,1.6C202.3,161,202.9,162.4,202.9,164"/>
	<path id="Path_49_2_" class="st4" d="M200,161.1c0,0.9-0.7,1.6-1.6,1.6s-1.6-0.7-1.6-1.6c0-0.9,0.7-1.6,1.6-1.6
		C199.1,159.4,199.8,160.1,200,161.1"/>
	<path id="Path_50_2_" class="st3" d="M193.3,167.2c0,2.3-1.3,4.4-3.5,5.3c-2.1,0.9-4.6,0.5-6.2-1.2c-1.7-1.6-2.2-4.1-1.3-6.2
		s2.9-3.6,5.2-3.6c1.5,0,3,0.6,4.1,1.6C192.7,164.2,193.3,165.7,193.3,167.2"/>
	<path id="Path_51_2_" class="st4" d="M190.2,164.4c0,0.9-0.7,1.6-1.6,1.6c-0.9,0-1.6-0.7-1.6-1.6c0-0.9,0.7-1.6,1.6-1.6
		c0.4,0,0.8,0.1,1.1,0.4C190.1,163.5,190.3,164,190.2,164.4"/>
	<polygon id="Path_27_2_" class="st7" points="186.7,133 205.3,132.3 220.3,132.3 220.3,117.1 186.7,119.2 	"/>
</g>
<g id="hand3">
	<g id="hand_1_">
		<path id="Path_28_2_" class="st2" d="M186.7,127.5l-9-14.8l4.9-26.1l45.5-19.1l8,0.6c2.5,15,8.5,30.1,2,44.6
			c-3.7,7.9-10,19.3-19.9,19.2c-3.8,0-8.3-2.7-12.3-3.1C202.8,128.4,188.2,130.1,186.7,127.5"/>
		<path id="Path_29_2_" class="st7" d="M182.6,86.6l-2,10.4l7.8,12.8c29.5,4.4,45.2-8.9,51.8-16.8L236,68l-8-0.6L182.6,86.6z"/>
		<path id="Path_30_2_" class="st7" d="M205,103.9l6.1,7.8c0,0,26.3-5.8,27.3-11.2L205,103.9z"/>
	</g>
	
		<g id="bar_2_" transform="translate(36.990920, 56.503321) rotate(72.000000) translate(-36.990920, -56.503321) translate(-16.509080, 39.003321)">
		
			<rect id="Rectangle_25_2_" x="120.2" y="-182.5" transform="matrix(8.039346e-06 1 -1 8.039346e-06 -1.5965 -272.3169)" class="st8" width="30.4" height="91.1"/>
		
			<rect id="Rectangle_26_2_" x="127.7" y="-174.9" transform="matrix(8.039346e-06 1 -1 8.039346e-06 5.9833 -264.697)" class="st9" width="15.2" height="91.1"/>
		<polygon id="Path_56_2_" class="st8" points="89.8,-121.7 82.2,-119.4 82.2,-154.3 89.8,-152 		"/>
		<polygon id="Path_57_2_" class="st9" points="89.8,-121.7 82.2,-119.4 82.2,-136.8 89.8,-136.8 		"/>
		<polygon id="Path_58_2_" class="st8" points="180.9,-121.7 188.5,-119.4 188.5,-154.3 180.9,-152 		"/>
		<polygon id="Path_59_2_" class="st9" points="180.9,-121.7 188.5,-119.4 188.5,-136.8 180.9,-136.8 		"/>
		
			<rect id="Rectangle_27_2_" x="78.4" y="-140.7" transform="matrix(8.039346e-06 1 -1 8.039346e-06 -43.3561 -230.4769)" class="st10" width="30.4" height="7.6"/>
		
			<rect id="Rectangle_28_2_" x="85.9" y="-133.1" transform="matrix(8.039346e-06 1 -1 8.039346e-06 -35.7762 -222.857)" class="st11" width="15.2" height="7.6"/>
		
			<rect id="Rectangle_29_2_" x="161.9" y="-140.7" transform="matrix(8.039346e-06 1 -1 8.039346e-06 40.1632 -313.9569)" class="st10" width="30.4" height="7.6"/>
		
			<rect id="Rectangle_30_2_" x="169.4" y="-133.1" transform="matrix(8.039346e-06 1 -1 8.039346e-06 47.7431 -306.3371)" class="st11" width="15.2" height="7.6"/>
	</g>
	<g id="fingers-3_2_" transform="translate(3.813000, 27.168000)">
		<path id="Path_70_2_" class="st2" d="M238.6,51.1c1.5,3.3,0,7.2-3.2,8.8l-8.3,3.8c-3.3,1.5-7.2,0.1-8.8-3.2
			c-1.5-3.3-0.1-7.2,3.2-8.8l8.3-3.8c1.6-0.7,3.4-0.8,5.1-0.2C236.5,48.2,237.8,49.5,238.6,51.1"/>
		<path id="Path_71_2_" class="st2" d="M237.3,61.8c1.9,2,1.9,5.2-0.1,7.2l-5.1,4.9c-1.3,1.3-3.2,1.8-5,1.3s-3.1-1.9-3.5-3.7
			c-0.4-1.8,0.1-3.6,1.4-4.9l5.1-4.9C232.2,59.8,235.3,59.9,237.3,61.8"/>
		<path id="Path_72_2_" class="st2" d="M240.4,74.8c1.9,2,1.9,5.2-0.1,7.2l-5.1,4.9c-1.3,1.3-3.2,1.8-5,1.3s-3.1-1.9-3.5-3.7
			c-0.4-1.8,0.1-3.6,1.4-4.9l5.1-4.9c1-1,2.3-1.5,3.6-1.5C238.2,73.2,239.5,73.8,240.4,74.8"/>
		<path id="Path_73_2_" class="st10" d="M227.8,67.3c-3.1,3.5-4.6,7.2-3.4,8.2c1.1,1,4.7-0.8,7.8-4.4c0.8-0.9,1.6-1.9,2.3-3l-4-3.4
			C229.7,65.5,228.8,66.3,227.8,67.3"/>
		<path id="Path_74_2_" class="st10" d="M225,53.1c-5.5,2.7-9.2,6.4-8.2,8.2c0.8,1.8,6.1,1.3,11.4-1.4c1.5-0.7,2.9-1.5,4.2-2.5
			l-3-6.1C228,51.7,226.5,52.3,225,53.1"/>
		<path id="Path_75_2_" class="st2" d="M231.9,38.1c1.5,3.3,0,7.2-3.2,8.8l-8.3,3.8c-3.3,1.5-7.2,0.1-8.8-3.2s-0.1-7.2,3.2-8.8
			l8.4-3.9C226.5,33.4,230.4,34.8,231.9,38.1"/>
		<path id="Path_76_2_" class="st10" d="M218.2,40.1c-5.5,2.7-9.2,6.4-8.2,8.2c0.8,1.8,6.1,1.3,11.4-1.4c1.5-0.7,2.9-1.5,4.2-2.5
			l-3-6.1C221.2,38.7,219.7,39.3,218.2,40.1"/>
		<path id="Path_77_2_" class="st10" d="M230.9,80c-3.5,3.1-5.5,6.5-4.4,7.8c1,1.1,4.8-0.3,8.2-3.4c0.9-0.8,1.8-1.7,2.5-2.7l-3.4-4
			C232.9,78.5,231.9,79.2,230.9,80"/>
		<path id="Path_68_2_" class="st2" d="M185.7,33.3c0,0,4.5,2.3,4.5,8.6l-2.3,10.9l-0.3,9.3l1.4,4.8c4.1,3.7,4.1,4.5,4.8,9.9
			c0.7,4.9,3.5,13-1,16.8c-4,3.4-11.2,2.2-14.6-1.6c-5.8-6.4-6.8-16.8-4.9-24.9l4.1-18.9L185.7,33.3z"/>
		<path id="Path_69_2_" class="st10" d="M183.9,39.6l3.1-8.9l-6.5,9.9C180.5,40.6,181.7,43,183.9,39.6"/>
	</g>
</g>
<g id="arm2">
	<rect id="Rectangle_5" x="126.5" y="149.3" class="st2" width="33.7" height="46.9"/>
	<polygon id="Path_25" class="st12" points="119.3,186.8 167.4,186.8 167.4,244.3 119.3,244.3 	"/>
	<g id="Group_16" transform="translate(22.123000, 84.084000)" class="st5">
		<g id="Group_15">
			<g id="Group_14">
				<rect id="Rectangle_12" x="114.6" y="102.7" class="st6" width="25.5" height="58"/>
			</g>
		</g>
	</g>
	<rect id="Rectangle_11" x="124.3" y="177.9" class="st13" width="38" height="10.9"/>
	<path id="Path_26" class="st8" d="M134.9,182.2c0.1,1.3-0.6,2.6-1.8,3.2c-1.2,0.6-2.7,0.4-3.6-0.5c-0.9-0.9-1.3-2.3-0.8-3.6
		s1.7-2.1,3-2.1C133.3,179.1,134.8,180.5,134.9,182.2"/>
	<polygon id="Path_12" class="st7" points="126.5,170.9 145.2,170.2 160.1,170.3 160.1,155.1 126.5,157.2 	"/>
</g>
<g id="hand2_2_">
	<g id="hand2_1_">
		<path id="Path_13" class="st2" d="M125.3,168.8l-10.9-13.6l1.4-26.5l42.5-24.9l8-0.4c4.5,14.5,12.4,28.7,7.8,43.9
			c-2.5,8.3-7.5,20.5-17.2,21.7c-3.8,0.5-8.6-1.5-12.7-1.5C141.4,167.5,127.2,171.2,125.3,168.8"/>
		<path id="Path_14" class="st7" d="M115.8,128.7l-0.6,10.5l9.5,11.7c29.8,0.6,43.6-14.6,49.1-23.4l-7.4-24.3l-8,0.4L115.8,128.7z"
			/>
		<path id="Path_15" class="st7" d="M140.5,142.9l7.1,6.9c0,0,25.3-9.2,25.6-14.7L140.5,142.9z"/>
	</g>
	<g id="can" transform="translate(3.000000, 0.000000)">
		<polygon id="Path_16" class="st8" points="142.3,74.7 141.8,73.6 129.9,77.1 129.9,77 127.2,77.8 124.5,78.5 124.7,78.7 
			112.8,82.3 113,83.6 110.8,90.7 127.9,147.1 133.9,151.4 145.4,147.9 150.7,146.3 162.4,142.8 164.9,136 148,79.5 		"/>
		
			<rect id="Rectangle_6" x="133.3" y="147" transform="matrix(0.9575 -0.2886 0.2886 0.9575 -36.2162 49.0562)" class="st14" width="29.9" height="0.7"/>
		<path id="Path_52" class="st9" d="M142.2,74.9L142.2,74.9l0.6-0.1c-0.7-0.5-1.4-1-2.1-1.4l-1.5,0.4l-0.1-0.6l-12.9,4v0.5
			l-14.1,4.2l0.6,1.8l0.3-0.1l0.1,0.9l-2.1,7l17.1,56.6l5.9,4.1l0.1,0.6l21.9-6.6l-1.3-4.1l-9-1.6L129.6,87l-11.7,3.5l1.8-8.3
			L142.2,74.9z"/>
		
			<rect id="Rectangle_17" x="125.8" y="74.3" transform="matrix(0.9574 -0.2886 0.2886 0.9574 -16.0066 41.4323)" class="st15" width="13.4" height="1.4"/>
		
			<rect id="Rectangle_18" x="111.5" y="76.5" transform="matrix(0.9574 -0.2886 0.2886 0.9574 -16.9259 39.9885)" class="st14" width="31.3" height="1.8"/>
	</g>
	<g id="fingers-2" transform="translate(0.000000, 25.000000)">
		<path id="Path_17" class="st2" d="M173.7,88.7c0.7,1.1,1,2.5,0.7,3.8s-1.1,2.4-2.2,3.1l-6,3.7c-1.5,1-3.4,1-5,0.2
			s-2.6-2.4-2.7-4.2c-0.1-1.8,0.8-3.5,2.3-4.4l5.9-3.7c1.1-0.8,2.5-1,3.8-0.7C171.9,86.7,173,87.5,173.7,88.7"/>
		<g id="Group_4" transform="translate(51.361000, 18.032000)" class="st16">
			<g id="Group_3">
				<g id="Group_2">
					<path id="Path_18" class="st4" d="M113.6,79.4l3.2-2c1.5-0.9,2-2.9,1-4.3c-0.9-1.5-2.9-1.9-4.4-1l-3.2,1.9L113.6,79.4z"/>
				</g>
			</g>
		</g>
		<path id="Path_19" class="st2" d="M168.5,74.8c2,3.2,1,7.3-2.1,9.3l-7.9,4.9c-2,1.3-4.6,1.5-6.8,0.3c-2.2-1.1-3.5-3.3-3.6-5.8
			c-0.1-2.4,1.2-4.7,3.2-6l7.9-4.8c1.5-1,3.4-1.3,5.1-0.9C166,72.2,167.6,73.3,168.5,74.8"/>
		<g id="Group_7" transform="translate(42.042000, 4.477000)" class="st16">
			<g id="Group_6">
				<g id="Group_5">
					<path id="Path_20" class="st4" d="M114.7,82.1l4.4-2.7c1.9-1.2,2.5-3.8,1.3-5.7c-1.2-1.9-3.7-2.6-5.7-1.5l-4.4,2.7L114.7,82.1z
						"/>
				</g>
			</g>
		</g>
		<path id="Path_21" class="st2" d="M176.1,98.1c1.1,0.8,1.7,2,1.9,3.4c0.2,1.3-0.2,2.7-1.1,3.7l-4.4,5.5c-1.7,2.2-4.9,2.5-7,0.8
			c-2.2-1.7-2.6-4.9-0.9-7L169,99c0.8-1.1,2-1.7,3.4-1.9C173.7,96.9,175.1,97.3,176.1,98.1"/>
		<g id="Group_10" transform="translate(55.597000, 28.751000)" class="st16">
			<g id="Group_9">
				<g id="Group_8">
					<path id="Path_22" class="st4" d="M115.1,80.5l2.4-3c1.1-1.4,0.9-3.4-0.4-4.5s-3.4-0.9-4.5,0.5l-2.4,3L115.1,80.5z"/>
				</g>
			</g>
		</g>
		<path id="Path_23" class="st2" d="M180.9,110.6c1.1,0.8,1.7,2,1.9,3.4c0.2,1.3-0.2,2.7-1.1,3.7l-4.4,5.5c-1.1,1.4-2.9,2.1-4.7,1.9
			c-1.8-0.3-3.3-1.4-4-3.1s-0.4-3.6,0.7-5l4.4-5.5c0.8-1.1,2-1.8,3.3-2C178.5,109.3,179.9,109.7,180.9,110.6"/>
		<g id="Group_13" transform="translate(60.398000, 41.036000)" class="st16">
			<g id="Group_12">
				<g id="Group_11">
					<path id="Path_24" class="st4" d="M115.1,80.7l2.4-3c1.1-1.4,0.9-3.4-0.4-4.5s-3.4-0.9-4.5,0.4l-2.4,3.1L115.1,80.7z"/>
				</g>
			</g>
		</g>
		<path id="Path_53" class="st2" d="M119.3,76.8c0,0,4.8,1.6,5.5,7.9L124,95.9l1,9.3l2,4.7c4.5,3.1,4.7,4,6.1,9.2
			c1.3,4.9,5.2,12.4,1.1,16.7c-3.7,4-10.9,3.7-14.8,0.4c-6.7-5.6-9-15.9-8.2-23.9l1.6-19.3L119.3,76.8z"/>
	</g>
</g>
<g id="arm1">
	<polygon id="Path_10" class="st2" points="90.9,223.8 56.2,224 55.8,96.3 90.5,96.2 	"/>
	<polygon id="Path_6" class="st2" points="93.7,58.2 59.2,55.4 55.2,103.7 89.7,106.6 	"/>
	<polygon id="Path_11" class="st17" points="47.9,101.5 98.2,101.5 98.2,244.6 47.9,244.6 	"/>
	<polygon id="Path_7" class="st7" points="57.4,77.7 76.6,78.5 92,79.9 93.2,64.1 58.6,63.4 	"/>
</g>
<g id="hand1">
	<g id="Layer_5">
		<path id="Path_8" class="st2" d="M56.4,75.3l-9.9-15l3.7-27.2l45.6-22l8.2,0.3c3.4,15.4,10.3,30.6,4.2,46
			c-3.2,8.5-9.3,20.5-19.5,20.9c-4,0.1-8.6-2.4-12.8-2.7C72.9,75.4,58.1,78,56.4,75.3"/>
		<path id="Path_9" class="st7" d="M50,33.1l-1.4,10.8l8.6,13c30.4,3.1,45.9-11.4,52.3-20l-5.7-25.7l-8.2-0.3L50,33.1z"/>
	</g>
	<g id="Layer_4">
		<path id="Path_54" class="st9" d="M103.3,13.3l0.5-4.7L47.3,23.5l2.6,3.5c2.1,2.9,3.7,6.2,4.6,9.6l7.4,27.9c0.8,2.9,1,6.1,0.6,9
			l-0.6,5.1l56.7-14.9l-3.8-5.2c-1.3-1.8-2.3-3.9-2.8-6L104,23C103.2,19.9,103,16.5,103.3,13.3L103.3,13.3z"/>
		<path id="Path_55" class="st8" d="M47.3,23.4l2.6,3.5c2.1,3,3.7,6.2,4.6,9.6l7.4,27.9c0.8,2.9,1,6.1,0.6,9l-0.6,5.2l28.3-7.5
			L75.6,15.9L47.3,23.4z"/>
		
			<rect id="Rectangle_19" x="61.8" y="71" transform="matrix(0.9671 -0.2544 0.2544 0.9671 -16.0106 25.6315)" class="st18" width="58.6" height="7.4"/>
		
			<rect id="Rectangle_20" x="90.6" y="67.3" transform="matrix(0.9671 -0.2544 0.2544 0.9671 -14.5964 29.1126)" class="st19" width="29.3" height="7.4"/>
		
			<rect id="Rectangle_21" x="45.4" y="8.6" transform="matrix(0.9671 -0.2544 0.2544 0.9671 -0.6752 19.4015)" class="st18" width="58.6" height="7.4"/>
		
			<rect id="Rectangle_22" x="74.2" y="4.9" transform="matrix(0.9671 -0.2544 0.2544 0.9671 0.739 22.8826)" class="st19" width="29.3" height="7.4"/>
		
			<rect id="Rectangle_23" x="64.9" y="23.1" transform="matrix(0.9671 -0.2544 0.2544 0.9671 -8.3668 22.5256)" class="st10" width="36" height="41.1"/>
		
			<rect id="Rectangle_24" x="82.6" y="20.8" transform="matrix(0.9671 -0.2544 0.2544 0.9671 -7.4996 24.6605)" class="st11" width="18" height="41.1"/>
	</g>
	<g id="Layer_3">
		<path id="Path_60" class="st2" d="M111.9,24.8c1.1,2.7-0.1,5.7-2.8,6.9l-6.6,2.9c-2.7,1.1-5.7-0.1-6.9-2.8c-0.6-1.2-0.6-2.8-0.1-4
			c0.5-1.3,1.6-2.3,2.8-2.9l6.6-2.9c1.2-0.6,2.8-0.6,4-0.1C110.4,22.4,111.4,23.4,111.9,24.8"/>
		<g id="Group_27" transform="translate(12.118000, 18.636000)" class="st16">
			<g id="Group_26">
				<g id="Group_25">
					<path id="Path_61" class="st4" d="M89.5,13.6l3.6-1.5c1-0.4,1.8-1.5,2-2.6c0.2-1.2-0.3-2.3-1.3-3s-2.1-0.9-3.2-0.4L87,7.7
						L89.5,13.6z"/>
				</g>
			</g>
		</g>
		<path id="Path_62" class="st2" d="M106.9,10.4c0.7,1.6,0.7,3.3,0,4.8c-0.6,1.6-1.8,2.8-3.4,3.5l-8.1,3.5c-3.2,1.3-6.8-0.2-8.2-3.3
			c-1.4-3.1,0.2-6.9,3.3-8.3L98.7,7c1.6-0.7,3.3-0.7,4.8,0S106.2,8.8,106.9,10.4"/>
		<g id="Group_30" transform="translate(4.364000, 4.799000)" class="st16">
			<g id="Group_29">
				<g id="Group_28">
					<path id="Path_63" class="st4" d="M90.1,14.8l4.3-1.8c0.9-0.4,1.7-1.2,2.2-2.1c0.5-1,0.4-2.1-0.1-3c-0.3-1-1.1-1.8-2-2.2
						c-1-0.4-2.1-0.4-3,0.1l-4.3,1.8L90.1,14.8z"/>
				</g>
			</g>
		</g>
		<path id="Path_64" class="st2" d="M112.9,34.9c1.9,2.2,1.9,5.5-0.3,7.5l-5.3,4.8c-1,0.9-2.3,1.4-3.7,1.4c-1.4,0-2.7-0.6-3.6-1.7
			c-1.9-2.2-1.9-5.5,0.3-7.5l5.3-5c1-0.9,2.4-1.4,3.7-1.3C110.7,33.2,112,33.8,112.9,34.9"/>
		<g id="Group_33" transform="translate(16.224000, 30.062000)" class="st16">
			<g id="Group_32">
				<g id="Group_31">
					<path id="Path_65" class="st4" d="M89.5,15.3l2.9-2.8c1-0.7,1.4-2,1.1-3.2s-1.1-2.1-2.3-2.4S88.8,6.8,88,7.6L85,10.4L89.5,15.3
						z"/>
				</g>
			</g>
		</g>
		<path id="Path_66" class="st2" d="M115.7,48.2c1.9,2.2,1.9,5.5-0.3,7.5l-5.3,5c-1,0.9-2.3,1.4-3.7,1.4c-1.4,0-2.7-0.6-3.6-1.7
			c-1.9-2.2-1.9-5.5,0.3-7.5l5.3-5c1-0.9,2.3-1.4,3.7-1.4C113.5,46.5,114.8,47.2,115.7,48.2"/>
		<g id="Group_36" transform="translate(20.178000, 44.193000)" class="st16">
			<g id="Group_35">
				<g id="Group_34">
					<path id="Path_67" class="st4" d="M88.4,14.7l2.9-2.8c1.3-1.2,1.4-3.3,0.2-4.7C90.2,6,88.3,5.9,87,7.1L84,9.9L88.4,14.7z"/>
				</g>
			</g>
		</g>
		<path id="Path_78" class="st2" d="M55.8,5.7c0,0,4.8,2.1,4.9,8.6l-1.8,11.4l0.1,9.7c1.1,1.5,0.8,15.9,1.7,20.5
			c0.8,5.1-6.2,14.6-9.9,10.9c-6.3-6.1-7.7-16.9-6.3-25.3l3.2-19.8L55.8,5.7z"/>
	</g>
</g>
</svg>
