<?xml version="1.0" encoding="utf-8"?>
<!-- Generator: Adobe Illustrator 21.0.2, SVG Export Plug-In . SVG Version: 6.00 Build 0)  -->
<svg version="1.1" id="Layer_1" xmlns="http://www.w3.org/2000/svg" xmlns:xlink="http://www.w3.org/1999/xlink" x="0px" y="0px"
	 viewBox="0 0 140 40" style="enable-background:new 0 0 140 40;" xml:space="preserve">
<style type="text/css">
	.st0{fill:#3F5D73;}
	.st1{fill:#0E2A3E;}
</style>
<title>Artboard</title>
<desc>Created with Sketch.</desc>
<g id="slot">
	<path id="Path_999" class="st0" d="M115.1,0C128.8,0,140,8.7,140,17.7c0,0.6,0,4.1,0,5c0,0.9-0.2,4.5-1,6
		c-2.7,5.4-14.2,4.1-23.9,4.1H25c-10.1,0-20-1.2-24-7.1c-1.3-1.9-1-4.6-1-7c0-2.8,1-7,4-10S15.6,0,25,0H115.1z"/>
	<path id="Path_999-Copy" class="st1" d="M115.1,6.7c13.8,0,25,7.9,25,16.9c0,1.4-0.4,8.2-6.1,12.1s-14.5,3.9-18.9,3.9H25
		c-5.1,0-14-1-19-4.9S0.2,24.3,0.2,23.2c0-9,11.1-16.4,24.8-16.4H115.1z"/>
</g>
</svg>
