<?xml version="1.0" encoding="utf-8"?>
<!-- Generator: Adobe Illustrator 21.0.2, SVG Export Plug-In . SVG Version: 6.00 Build 0)  -->
<svg version="1.1" id="Layer_1" xmlns="http://www.w3.org/2000/svg" xmlns:xlink="http://www.w3.org/1999/xlink" x="0px" y="0px"
	 viewBox="0 0 312 146" style="enable-background:new 0 0 312 146;" xml:space="preserve">
<style type="text/css">
	.st0{fill:#ECECEC;}
	.st1{fill:#A3C1CF;}
	.st2{fill:#8FB4AE;}
	.st3{fill:#D9E3E2;}
	.st4{fill:#BEBEA9;}
	.st5{fill:#527D8F;}
	.st6{fill:#EBEFED;}
	.st7{fill:#517580;}
	.st8{fill:#759BA8;}
	.st9{fill:#64838A;}
	.st10{fill:#5F8A9C;}
	.st11{fill:#90B0BD;}
	.st12{fill:#4D5F5F;}
	.st13{fill:#A9C0AC;}
	.st14{fill:#BBD2DB;}
	.st15{fill:#EDF0DE;}
	.st16{fill:#C7D4CC;}
	.st17{fill:#BFB8CA;}
	.st18{fill:#CAE3E3;}
	.st19{fill:#E4E5E7;}
	.st20{fill:#39887A;}
	.st21{fill:#60B6BC;}
</style>
<title>fiver</title>
<desc>Created with Sketch.</desc>
<g id="fiver">
	<rect id="Rectangle-7" y="0" class="st0" width="312" height="146"/>
	<path id="Rectangle-8" class="st1" d="M11,11c0,0,23.2-0.3,48,0s36.7-1,51-1c35.3,0,86,1,86,1s-2,31.9-2,47s2,78,2,78
		s-34.7-0.1-73-1c-9.3-0.2-19.6,1-28,1s-27.4-1-40-1c-48.8,0-44,1-44,1s3-43.5,3-67S11,11,11,11z"/>
	<path id="Path" class="st2" d="M11,11c0,0,24.6,1,40,1s39.3-1,39.3-1S110,48.2,110,67s-19.7,69-19.7,69H11c0,0,0.2-15.9,1-37
		s2-36.5,2-47C14,27.6,11,11,11,11z"/>
	<path id="Path_1_" class="st3" d="M167.4,2.7c-0.4-0.2-0.7-0.5-1.1-0.7C166.6,2.2,167,2.5,167.4,2.7"/>
	<path id="Path_2_" class="st4" d="M59.2,104.9c-0.2,0.3-0.4,0.7-0.6,1.1c-0.1-0.3-0.4-0.6-0.4-0.8c0.1-0.4,0.3-0.8,0.5-1.2
		C58.8,104.3,59,104.5,59.2,104.9"/>
	<rect id="Path_3_" x="97.9" y="125" class="st5" width="98.1" height="11"/>
	<path id="Path_4_" class="st6" d="M261.7,0c10.7,15.7,17.9,28,22.3,36c2.2,4,4.6,8.4,6.4,14.8c1.6,5.6,2,11.5,2.6,22.2
		c1.1,19-8,38-8,38l-15,33h42V0C295.2,0,278.5,0,261.7,0z"/>
	<g id="winston" transform="translate(94.553079, 18.152436)">
		<path id="Path_5_" class="st7" d="M101.2,72.5c-0.1,0.6-0.2,1.2-0.3,1.8c-0.1,0.1-0.3,0.2-0.3,0.3c0.1,0.2,0.2,0.5,0.3,0.7
			c0.1,2.1,0.1,4.3,0.2,6.4c-0.1,0.9-0.3,1.9-0.4,2.8c-0.2,0.1-0.5,0.1-0.7,0.2l-0.3,0.1c-3-7.6,6.2-24.1-14-18.9
			c-0.3-1-0.5-2-0.8-3c-0.8,2.2-1.6,4.3-2.4,6.5c-0.1-0.8-0.1-1.6-0.2-2.5c-0.2-2.2-0.5-4.4-0.7-6.6c-0.6-2.7-1.2-5.5-1.8-8.2
			c1.2,0,2.3-0.1,3.5-0.1c0.4,0.9,0.8,1.9,1.2,2.8c0.9,0.3,1.8,0.6,2.7,0.9c0.3,0.3,0.5,0.7,0.8,1c0.7,0.6,1.3,1.1,2,1.7
			c0.6,0.4,1.2,0.7,1.8,1.1c3,1,6.1,2,9.1,3C101,65.9,101.1,69.2,101.2,72.5"/>
		<path id="Path_6_" class="st5" d="M60.4,0c3.7,0.8,7.5,1.7,11.2,2.5c1.5,3.5,3.1,7.1,4.6,10.6c-1.2,0-2.4,0-3.5,0
			c-0.4-0.6-0.7-1.2-1.1-1.8l-15-8.6l-0.1,0.2c-0.6,0.3-1.1,0.6-1.7,0.8l-1,0.1c-0.9,0.3-1.8,0.6-2.7,1l-1.9,1.9
			c-1.2,1.8-2.5,3.6-3.7,5.4c-0.6,0-1.1,0-1.7,0c-0.4-1.3-0.9-2.6-1.3-3.9l-6.1,6.9l-2.3,23.2c-2.1-2.8-4.1-5.6-6.2-8.4
			c1.3-5.3,2.6-10.5,3.8-15.8c2.5-2.9,4.9-5.9,7.4-8.8c0.6-0.2,1.1-0.5,1.7-0.7C41.9,4.3,43,4,44.2,3.7c0.4-0.3,0.9-0.6,1.3-0.9l0,0
			c1.6-0.8,3.1-1.5,4.7-2.3C53.5,0.4,57,0.2,60.4,0"/>
		<path id="Path_7_" class="st5" d="M80.6,83c0.6-0.7,1-1,1.1-1.3c0-0.3-0.4-0.6-0.6-0.9c-0.4,0.3-0.9,0.6-1.2,1
			C79.8,82,80.3,82.5,80.6,83 M57.2,94.3c-0.4,1.5-0.8,2.2-0.6,2.8c0.2,0.8,0.8,1.4,1.2,2.1c0.6-0.5,1.5-0.9,1.6-1.4
			C59.4,97.2,58.7,96.6,57.2,94.3 M46.3,100.7c1.1-1.2,2-2.3,2.9-3.3c-0.7-0.3-1.5-1-2.2-0.9c-0.5,0-1.3,1-1.3,1.5
			C45.6,98.9,46.1,99.9,46.3,100.7 M43.5,84.6c-3.3-4.7-6.2-8.7-9.1-12.8c-3,8.6-6.3,17.1-8.5,25.9c-0.3,1.1,5.7,3.7,8.8,5.6
			C37.6,97.4,40.4,91.4,43.5,84.6 M7.5,88.5c0.3-0.5,0.6-1.8,0.6-1.8c1.9-1.3,5.6-5.4,5.6-5.4s4.9-5.4,6.8-7.6
			c0.6-0.6,1.2-1.2,1.8-1.8c4.3-1.3,8.7-2.7,13-4c1,0.4,1.9,0.7,2.9,1.1c0.3,0,0.6,0,0.9,0.1c0,0.9,0.1,1.8,0.1,2.7
			c2.2,2.2,4.3,4.3,6.5,6.5c0,0.3,0,0.5,0.1,0.8c3.3,4.1,6.7,8.1,10,12.2c0.4,0,0.8,0,1.2,0c1.1,0,2.2,0,3.3,0c0.4,0,0.8,0,1.2,0
			c0.5,0.6,1,1.2,1.5,1.8c0.1-0.6,0-2.2,0.1-2.7c1.9-2.2,3.7-3.4,5.6-5.6l0.9-6.5l1.9-0.9l7.8,0.1c0,0,1.8-1.4,2.7-2.2
			c1.6,5.4,3.2,10.7,4.7,16.1c0.3,1.3-0.1,2.8,0.1,4.1c0.2,1.1,0.9,2,1.5,3c0.6-7.6,1.3-15.3,1.4-22.9c0-0.6-4.3-1.3-6.7-2
			c1.1-2.8,2.2-5.6,3.2-8.4c20.2-5.1,11,11.4,14,18.9l0.3-0.1c0.2-0.1,0.5-0.1,0.7-0.2c0.5,0.8,1,1.6,1.4,2.4v0.2
			c-0.5,0.1-0.9,0.1-1.4,0.2c-3.3,6.8-6.6,13.7-9.9,20.5c-1.6,0-3.1,0-4.7,0c-1.2,0-2.4-0.1-3.7-0.1c-3-0.9-6-2.1-9.1-2.6
			c-0.8-0.1-2,1.7-2.9,2.6c-0.3,0-0.7,0.1-1,0.1c-0.3-0.1-0.6-0.1-0.9-0.1c-1.5-0.9-3.1-1.8-4.6-2.7c-0.8,0-1.6,0-2.4,0
			c-2.6-0.7-5.2-1.4-7.8-2.1c-1.6,0.7-3.1,1.5-4.7,2.2c-0.3,1.5-0.6,3-0.8,4.6c-0.7,0-1.3,0-2-0.1H14.3v0.2
			c-0.4-0.1-0.7-0.2-1.1-0.3c-0.3,0-0.5,0-0.8,0c-0.4,0-0.7,0-1.1,0c-1.3-0.3-2.6-0.6-3.9-0.8l-2.6-1.8c-0.6,0-1.1,0-1.7,0
			c-0.7-1-1.4-2-2.1-3c0.1-0.8,0.1-1.6,0.2-2.4c0.3-0.1,0.6-0.2,0.8-0.3c0.4-0.3,0.7-0.7,1.1-1C3.2,99.3,6.2,91.9,7.5,88.5z"/>
		<path id="Path_8_" class="st8" d="M79.2,69.7c-0.3-0.7-0.5-1.2-0.7-1.7c-0.4,0.6-0.9,1.2-1.1,1.8c-0.1,0.3,0.5,0.8,0.8,1.2
			C78.5,70.6,78.8,70.2,79.2,69.7 M82.6,66.1c0.1,0.8,0.1,1.6,0.2,2.5c-0.3,0.6-0.6,1.1-0.9,1.7c0,0.4-0.1,0.9-0.1,1.3
			c0,0.7,0.1,1.3,0.1,2l0,0c-0.6,0.3-1.2,0.5-1.8,0.8c-0.3,0.5-0.7,1-1,1.5c0,0.5,0,1,0,1.4l0,0c-0.3,0-0.6,0-0.9,0
			c-2.2,0-4.3-0.1-6.5-0.1c-0.6-0.6-1.3-1.2-1.9-1.8c1.6-1.8,4.4-3.4,4.6-5.3c0.3-5-0.5-10.1-0.9-15.2l2.2,5.4
			c0.2-0.4,0.7-0.9,0.7-1.3c0-3.2,0-6.4,0-9.6c1.5-1.9,3-3.8,4.5-5.6c-0.2,2.5-0.5,5.1-0.7,7.6c0.6,2.7,1.2,5.5,1.8,8.2
			C82.1,61.8,82.4,63.9,82.6,66.1"/>
		<path id="Path_9_" class="st9" d="M89.8,46.5c-0.4,1.9-0.9,3.8-1.3,5.8c0,0.4-0.1,0.7-0.1,1.1c-0.3,0.6-0.6,1.2-0.9,1.8
			c-0.9-0.3-1.8-0.6-2.7-0.9c-0.4-1.3-0.7-2.5-1.1-3.8c0-0.4,0-0.7,0.1-1.1c1-0.6,1.9-1.1,2.9-1.7c-0.1-3.1-0.1-6.2-0.2-9.3
			c0-1.9-0.1-3.8-0.1-5.6l1.2-2c0.5,0.2,1.1,0.4,1.6,0.5c0.4,1.2,0.8,2.3,1.2,3.5c-0.1,0.3-0.1,0.5-0.1,0.8c0,1-0.1,1.9-0.1,2.9
			c0,2.2-0.1,4.3-0.1,6.5c0,0.2-0.1,0.6-0.1,1C89.9,46.1,89.8,46.3,89.8,46.5"/>
		<path id="Path_10_" class="st10" d="M87.1,43.9c0-0.1,0-0.2-0.1-0.3c0,0-0.2,0-0.3,0.1c0,0.1,0,0.2,0.1,0.3
			C86.8,44,87,43.9,87.1,43.9L87.1,43.9z M86.4,38.1c0.1,3.1,0.1,6.2,0.2,9.3c-1,0.6-1.9,1.1-2.9,1.7c0,0.4,0,0.7-0.1,1.1
			c0,0.3-0.1,0.6-0.1,1c-1.2,0-2.3,0.1-3.5,0.1c0.2-2.5,0.5-5.1,0.7-7.6c-0.3-0.6-0.6-1.3-0.8-1.9c0.3-0.9,0.6-1.9,1-2.8L86.4,38.1z
			"/>
		<path id="Path_11_" class="st1" d="M81.9,73.8c0-0.7-0.1-1.3-0.1-2c0-0.4,0.1-0.9,0.1-1.3c0.3-0.6,0.6-1.1,0.9-1.7
			c0.8-2.2,1.6-4.3,2.4-6.5c0.3,1,0.5,2,0.8,3c-1.1,2.8-2.2,5.6-3.2,8.4C82.5,73.8,82.2,73.8,81.9,73.8"/>
		<path id="Path_12_" class="st10" d="M82.6,66.1c-0.2-2.2-0.5-4.4-0.7-6.6C82.1,61.7,82.3,63.9,82.6,66.1"/>
		<path id="Path_13_" class="st11" d="M83.7,51.2c0-0.3,0.1-0.6,0.1-1c0.4,1.3,0.7,2.5,1.1,3.8C84.5,53.1,84.1,52.2,83.7,51.2"/>
		<path id="Path_14_" class="st8" d="M100.7,83.7l-0.3,0.1C100.4,83.9,100.7,83.7,100.7,83.7"/>
		<path id="Path_15_" class="st7" d="M91.1,107.1c3.3-6.8,6.6-13.7,9.9-20.5l0.4,2.8c-0.1,5.6-0.2,11.1-0.3,16.7
			c-0.5,0.1-1.1,0.1-1.6,0.2c-1.8,0.3-3.6,0.7-5.4,1C93.1,107.2,92.1,107.1,91.1,107.1"/>
		<path id="Path_16_" class="st7" d="M87.5,30.9c-0.4,0.7-0.8,1.3-1.2,2c-1.1-0.2-3-0.2-3.3-0.8c-2.4-5.8-4.6-11.8-6.8-17.7l0,0
			c0.6-0.1,1.1-0.2,1.7-0.3c-0.6-0.2-1.1-0.4-1.7-0.6l0,0c-1.5-3.5-3.1-7.1-4.6-10.6c3.3,2.1,6.6,4.2,9.9,6.3c0.4,0.5,0.8,1,1.2,1.5
			c0.2,0.4,0.4,0.8,0.6,1.2c0,0.6,0,1.2,0,1.9c0.7,3.3,1.4,6.7,2.2,10c0.5,1.9,1.1,3.8,1.6,5.8C87.2,29.9,87.3,30.4,87.5,30.9"/>
		<path id="Path_17_" class="st12" d="M85.8,23.1c-0.7-3.3-1.4-6.7-2.2-10C84.4,16.4,85.1,19.7,85.8,23.1"/>
		<path id="Path_18_" class="st1" d="M83.4,11.2c-0.2-0.4-0.4-0.8-0.6-1.2c1.2-0.3,2.5-0.5,3.7-0.8C85.4,9.9,84.4,10.6,83.4,11.2"/>
		<path id="Path_19_" class="st1" d="M24.1,56.8c-0.3,1.9-0.6,3.7-0.9,5.6C23.5,60.5,23.8,58.6,24.1,56.8"/>
		<path id="Path_20_" class="st11" d="M68.1,71.5c-0.2,0.5-0.5,0.8-0.5,1.2c0,0.2,0.5,0.5,0.7,0.5c0.3-0.1,0.6-0.4,0.9-0.6
			C68.9,72.2,68.6,71.9,68.1,71.5 M79.9,41.8c0.3,0.6,0.6,1.3,0.8,1.9c-1.5,1.9-3,3.8-4.5,5.6c-1,1.8-1.9,3.7-2.9,5.5
			c0.4,5.1,1.2,10.2,0.9,15.2c-0.1,1.9-3,3.5-4.6,5.3c-1.2,1-2.4,1.9-3.7,2.9c-0.3,0-0.6,0-0.9,0c-0.3-2-0.7-4.1-1-6.1v-1.4l2.9-0.5
			c-0.6-0.8-1.2-1.6-1.9-2.4c-0.3-0.6-0.5-1.2-0.8-1.9c-0.7-1.1-1.3-2.3-2-3.4c0.6-2.5,1.2-5.1,1.9-7.6c-2.4-1.6-4.8-3.2-7.2-4.7
			c-0.3-0.7-0.7-1.3-1-2c4.6-0.3,9.3-0.5,13.9-0.8c0.9-0.4,1.8-0.8,2.7-1.3c-0.6-0.5-1.2-1.1-1.9-1.6c0.3-0.3,0.6-0.6,0.9-0.9
			c0.4-0.5,0.9-1.1,1.3-1.6c-1.1-0.3-2.1-0.7-3.2-1c-3.4,0-6.8,0-10.2,0c-0.3-0.1-0.6-0.2-0.9-0.2c3-1.3,8.5-2.6,8.5-3.8
			c-0.3-9-1.8-17.9-2.9-26.8c2.5,0.3,5,0.6,7.4,0.9c0.4,0.6,0.7,1.2,1.1,1.8c0.2,0.7,0.4,1.4,0.7,2c0.3,0.6,0.6,1.2,1,1.7
			c0,0.6,0.1,1.2,0.1,1.8c0.9,4.6,1.8,9.3,2.7,13.9v1C78,36.3,79,39,79.9,41.8"/>
		<path id="Path_21_" class="st7" d="M35.1,67.7c-1.2-7.4-2.5-14.8-3.7-22.2l-3.5-15.8c2.1,2.8,4.1,5.6,6.2,8.4c0,1.5,0.1,3,0.1,4.5
			c0.6,3.5,1.3,6.9,1.9,10.4c0,0.9,0.1,1.9,0.1,2.8c0.6,0.6,1.1,1.3,1.7,1.9c0,0.6,0,1.1,0,1.7L38,67c0,0.6,0,1.2-0.1,1.8
			C37,68.5,36.1,68.1,35.1,67.7"/>
		<path id="Path_22_" class="st8" d="M34.5,42.6c0-1.5-0.1-3-0.1-4.5c0.8-7.7,1.5-15.4,2.3-23.2c1.2,0,2.5,0,3.7,0
			c-0.6,8.9-1.3,17.9-1.9,26.8c-0.9,0.6-1.8,1.2-2.7,1.8C35.3,43.2,34.9,42.9,34.5,42.6"/>
		<path id="Path_23_" class="st10" d="M71.7,11.4c-2.5-0.3-5-0.6-7.4-0.9c-1.5-1.6-3.1-3.2-4.6-4.8l-2.9-2.9L71.7,11.4z"/>
		<path id="Path_24_" class="st8" d="M56.7,2.8c1,1,1.9,1.9,2.9,2.9c-4.1,2.5-8.1,4.9-12.2,7.4c0.6-2.1,1.2-4.2,1.8-6.3
			c0.6-0.6,1.3-1.2,1.9-1.9c0.9-0.3,1.8-0.6,2.7-1c0.3,0,0.7-0.1,1-0.1C55.4,3.5,56,3.2,56.6,3L56.7,2.8z"/>
		<path id="Path_25_" class="st10" d="M40.9,15.3c-1.2,0-2.5,0-3.7,0c2-2.3,4.1-4.6,6.1-6.9c0.4,1.3,0.9,2.6,1.3,3.9
			c-1,1-1.9,2-2.9,2.9C41.4,15.2,41.1,15.3,40.9,15.3"/>
		<path id="Path_26_" class="st10" d="M49.3,6.5c-0.6,2.1-1.2,4.2-1.8,6.3c-0.3,0.1-0.6,0.1-0.8,0c-0.4-0.3-0.7-0.6-1.1-0.9
			C46.8,10.1,48,8.3,49.3,6.5"/>
		<path id="Path_27_" class="st8" d="M45.4,12.1c0.4,0.3,0.7,0.6,1.1,0.9c-1.9,0.7-3.7,1.4-5.6,2.1c1-1,1.9-2,2.9-2.9
			C44.3,12.1,44.9,12.1,45.4,12.1"/>
		<path id="Path_28_" class="st10" d="M74.1,15.1c-0.2-0.7-0.4-1.4-0.7-2c1.2,0,2.4,0,3.5,0l0,0c0,0.3,0,0.6,0,0.9l0,0
			c-0.6,0.3-1.3,0.6-1.9,0.9C74.8,15,74.4,15,74.1,15.1"/>
		<path id="Path_29_" class="st10" d="M53.8,3.7c-0.9,0.3-1.8,0.6-2.7,1C52,4.4,52.9,4,53.8,3.7"/>
		<path id="Path_30_" class="st10" d="M56.5,2.8c-0.6,0.3-1.1,0.6-1.7,0.8C55.4,3.3,55.9,3.1,56.5,2.8"/>
		<path id="Path_33_" class="st7" d="M99.4,107.6c0.4,0.4,0.7,0.7,1.1,1.1c-6.9,0-13.9,0-20.8-0.1c-1.4,0-2.8-0.3-4.2-0.5
			c1.2-0.4,2.4-0.9,3.6-1.3c0.1-0.1,0.3-0.3,0.4-0.4c-0.2,0.1-0.3,0.2-0.5,0.4c-2.8,0.6-5.6,1.2-8.3,1.8c0-0.6,0-1.2,0-1.9
			c1-0.9,2.1-2.7,2.9-2.6c3.1,0.5,6.1,1.7,9.1,2.6c1.2,0.3,2.4,0.6,3.7,0.8c2.5,0,5,0,7.6,0C95.8,107.7,97.6,107.7,99.4,107.6"/>
		<path id="Path_34_" class="st10" d="M70.7,107c0,0.6,0,1.2,0,1.9c-0.3,0.3-0.6,0.6-0.9,0.9c-0.6-0.3-1.3-0.6-1.9-0.9
			c0.6-0.6,1.2-1.2,1.8-1.8C70,107.1,70.3,107,70.7,107"/>
		<path id="Path_35_" class="st10" d="M35.1,104.2c-3.1-1.9-9.6-5.4-9.3-6.5c2.2-8.8,5.7-17.5,8.7-26.1c2.9,4.1,5.8,8.2,9.1,12.8
			C40.5,91.2,37.9,98.2,35.1,104.2z"/>
		<path id="Path_36_" class="st7" d="M65.1,78.3c0.3,0,0.6,0,0.9,0c1.2,0,2.4-0.1,3.6-0.1l-0.9,6.5l0,0c-1.9,2.2-3.7,4.3-5.6,6.5
			c-0.6,0-1.2,0-1.8,0l0,0c-0.4,0-0.8,0-1.2,0c-1.1,0-2.2,0-3.3,0c-0.4,0-0.8,0-1.2,0c-3.3-4.1-6.7-8.1-10-12.2
			c4.1,0.8,8.1,1.6,12.2,2.5C60.2,80.4,62.6,79.3,65.1,78.3"/>
		<path id="Path_37_" class="st10" d="M81.9,73.6c0.3,0,0.6,0,0.9,0c2.3,0.7,6.7,1.3,6.7,2c-0.1,7.6-0.8,15.3-1.4,22.9
			c-0.5-1-1.3-2-1.5-3c-0.3-1.3,0.2-2.8-0.1-4.1C85,86,83.4,80.7,81.8,75.3C81.9,74.6,81.9,74.1,81.9,73.6L81.9,73.6z"/>
		<path id="Path_38_" class="st8" d="M57.8,81.3c-4.1-0.8-8.2-1.6-12.2-2.5c0-0.3,0-0.6-0.1-0.8c0-0.9,0-1.8,0-2.7
			c1.2,0.2,2.4,0.5,3.6,0.8C52,77.9,54.9,79.6,57.8,81.3"/>
		<path id="Path_39_" class="st7" d="M19.5,109.2c-1.9-0.1-3.7-0.2-5.6-0.3c10.8,0,21.6,0,32.4,0c-2.5,0.1-4.9,0.2-7.4,0.3
			C32.4,109.2,25.9,109.2,19.5,109.2"/>
		<path id="Path_40_" class="st8" d="M57.5,109.1c-0.3-0.1-0.5-0.2-0.8-0.3c1-1.5,2-2.9,3-4.4c0.7-0.1,1.4-0.2,2-0.3
			c0.8,0,1.6,0,2.4,0c0.4,0.9,0.7,1.8,1.1,2.6c-0.1,0.1-0.2,0.3-0.3,0.4c-1.2,0.5-2.3,1-3.5,1.5L57.5,109.1z"/>
		<path id="Path_41_" class="st10" d="M45.6,75.5v2.7c-2.2-2.2-4.3-4.3-6.5-6.5c1.1,0.6,2.2,1.2,3.3,1.8c0.7,0,1.5,0.1,2.2,0.1
			C44.9,74.2,45.2,74.8,45.6,75.5"/>
		<path id="Path_42_" class="st11" d="M38.1,68.9c0-0.6,0-1.2,0.1-1.8c0.4-1.6,0.7-3.2,1.1-4.7c1.2,0.1,2.4,0.1,3.7,0.2
			c-0.7,2.1-1.4,4.3-2,6.4c-0.6,0-1.3,0-1.9,0C38.7,69,38.4,69,38.1,68.9"/>
		<path id="Path_43_" class="st1" d="M61.8,104.5c-0.7,0.1-1.4,0.2-2,0.3c-2-0.4-3.9-0.9-5.9-1.3c0-0.4,0.1-0.7,0.1-1.1
			C56.6,103.1,59.2,103.8,61.8,104.5"/>
		<path id="Path_44_" class="st10" d="M45.6,97.9c0-0.6,0.3-1.6,0.8-1.7c0.8,0,2.3,0.6,3.1,1c-1,1.1-2,2.3-3.2,3.6
			C46.1,100,45.6,98.9,45.6,97.9z"/>
		<path id="Path_45_" class="st7" d="M65.2,106.8c-0.4-0.9-0.7-1.8-1.1-2.6c1.5,0.9,3.1,1.8,4.6,2.7
			C67.6,106.9,66.4,106.9,65.2,106.8"/>
		<path id="Path_47_" class="st11" d="M39,68.9c0.6,0,1.3,0,1.9,0c0.5,1.5,1,3,1.5,4.5c-1.1-0.6-2.2-1.2-3.3-1.7
			C39.1,70.7,39.1,69.8,39,68.9"/>
		<path id="Path_48_" class="st1" d="M81.8,73.5c0,0.5-0.1,1-0.1,1.6c-0.9,0.7-1.8,1.5-2.7,2.2c0-0.5,0-1,0-1.4c0.3-0.5,0.7-1,1-1.5
			C80.6,74,81.2,73.8,81.8,73.5"/>
		<path id="Path_49_" class="st8" d="M94,107.8c-2.5,0-5,0-7.6,0c0-0.2,0-0.5,0-0.7c1.6,0,3.1,0,4.7,0c1,0,1.9,0.1,2.9,0.1
			C94,107.3,94,107.6,94,107.8"/>
		<path id="Path_50_" class="st8" d="M65.4,107c1.2,0,2.4,0,3.6,0.1c0.3,0,0.6,0.1,0.9,0.1c-0.6,0.6-1.2,1.2-1.8,1.8
			c-0.6,0-1.2,0-1.8,0.1c-0.4-0.5-0.8-1.1-1.2-1.6C65.2,107.3,65.3,107.2,65.4,107"/>
		<path id="Path_51_" class="st10" d="M61.3,91.2c0.6,0,1.2,0,1.8,0c-0.1,0.6-0.2,1.1-0.3,1.7C62.3,92.3,61.8,91.8,61.3,91.2"/>
		<path id="Path_52_" class="st7" d="M49.2,104.2c0.2,0.9,0.3,1.7,0.5,2.6c-0.4,0.6-0.9,1.3-1.3,1.9
			C48.6,107.2,48.9,105.7,49.2,104.2"/>
		<path id="Path_53_" class="st11" d="M86.4,107.1c0,0.2,0,0.5,0,0.7c-1.2-0.3-2.4-0.6-3.7-0.8C84,107,85.2,107.1,86.4,107.1"/>
		<path id="Path_54_" class="st7" d="M11.3,108.8c-1.3-0.3-2.6-0.6-3.9-0.8C8.7,108.2,10,108.5,11.3,108.8"/>
		<path id="Path_55_" class="st10" d="M60.4,91.2c0.4,0,0.8,0,1.2,0C61.2,91.2,60.8,91.2,60.4,91.2"/>
		<path id="Path_56_" class="st8" d="M55.8,91.2c0.4,0,0.8,0,1.2,0C56.6,91.2,56.2,91.2,55.8,91.2"/>
		<path id="Path_57_" class="st7" d="M12.8,108.9l-0.4,0.1H12C12.3,108.9,12.5,108.9,12.8,108.9"/>
		<path id="Path_58_" class="st10" d="M73.4,54.8c1-1.8,1.9-3.7,2.9-5.5c0,3.2,0.1,6.4,0,9.6c0,0.4-0.4,0.9-0.7,1.3L73.4,54.8z"/>
		<path id="Path_59_" class="st10" d="M71.6,77.1c-0.6,0.3-1.3,0.7-1.9,1c-1.2,0-2.4,0.1-3.6,0.1c1.2-1,2.4-1.9,3.7-2.9
			C70.3,76,70.9,76.5,71.6,77.1"/>
		<path id="Path_60_" class="st10" d="M79.1,69.8c-0.4,0.5-0.7,0.9-1,1.3c-0.3-0.4-0.9-0.9-0.8-1.2c0.2-0.7,0.7-1.2,1.1-1.8
			C78.6,68.6,78.8,69.1,79.1,69.8"/>
		<path id="Path_61_" class="st9" d="M81.9,70.7c0,0.4-0.1,0.9-0.1,1.3C81.9,71.6,81.9,71.1,81.9,70.7"/>
		<path id="Path_62_" class="st9" d="M80,74.4c-0.3,0.5-0.7,1-1,1.5C79.4,75.4,79.7,74.9,80,74.4"/>
		<path id="Path_63_" class="st13" d="M88.3,53.2c0-0.4,0.1-0.7,0.1-1.1c1.2,0.2,2.3,0.4,3.5,0.6C90.7,52.9,89.5,53.1,88.3,53.2"/>
		<path id="Path_64_" class="st5" d="M74.4,14.9c0.6-0.3,1.3-0.6,1.9-0.9c2.2,5.9,4.4,11.9,6.8,17.7c0.3,0.6,2.2,0.5,3.3,0.8
			c0,1.9,0.1,3.8,0.1,5.6c-1.8,0.3-3.7,0.6-5.5,0.9c-1.3-1.8-2.5-3.7-3.8-5.5v-1c-0.9-4.6-1.8-9.3-2.7-13.9c0-0.6-0.1-1.2-0.1-1.8
			C74.4,16.1,74.4,15.5,74.4,14.9"/>
		<path id="Path_65_" class="st11" d="M83.7,49.1c1-0.6,1.9-1.1,2.9-1.7C85.6,48,84.6,48.6,83.7,49.1"/>
		<path id="Path_66_" class="st8" d="M77.2,33.5c1.3,1.8,2.5,3.7,3.8,5.5c-0.3,0.9-0.6,1.9-1,2.8C79.1,39,78.1,36.3,77.2,33.5"/>
		<path id="Path_67_" class="st5" d="M87.8,44.1c-0.1,0-0.2,0.1-0.3,0.1c-0.1-0.1-0.1-0.2-0.1-0.3c0.1,0,0.3-0.1,0.3-0.1
			C87.7,43.8,87.7,43.9,87.8,44.1"/>
		<path id="Path_68_" class="st11" d="M93.9,107.7c0-0.2,0-0.4,0-0.7c1.8-0.3,3.6-0.7,5.4-1c0,0.5,0,1.1,0,1.6
			C97.5,107.7,95.7,107.7,93.9,107.7"/>
		<path id="Path_69_" class="st5" d="M76.3,14c0-0.3,0-0.6,0-0.9c0.6,0.2,1.1,0.4,1.7,0.6C77.4,13.8,76.8,13.9,76.3,14"/>
		<path id="Path_70_" class="st1" d="M27.6,44.7l-0.3,2.7c-0.1-0.1-0.4-0.2-0.4-0.2C27.1,46.3,27.4,45.5,27.6,44.7L27.6,44.7z"/>
		<path id="Path_72_" class="st1" d="M61.4,36.1v-0.4L61,35.9L61.4,36.1z M57.9,54.9c0.2-0.1,0.5-0.2,0.7-0.3
			c-0.1-0.1-0.2-0.3-0.2-0.3c-0.2,0-0.5,0-0.7,0.1C57.7,54.6,57.8,54.7,57.9,54.9L57.9,54.9z M40.9,15c1.9-0.7,3.7-1.4,5.6-2.1
			c0.3,0.1,0.6,0.1,0.8,0c4.1-2.5,8.1-4.9,12.2-7.4c1.5,1.6,3.1,3.2,4.6,4.8c1.1,8.9,2.5,17.9,2.9,26.8c0,1.1-5.5,2.5-8.5,3.8
			c-1.2,0.5-2.4,0.9-3.6,1.4c-1.9-2.9-3.9-5.7-5.8-8.6c0,1.2,0.1,2.4,0.1,3.6c-0.3,0.6-0.6,1.3-0.9,1.9c0.2,1.2,0.4,2.4,0.6,3.6
			c1.3,1,2.6,2,3.9,3c0.3,0.2,0.5,0.5,0.8,0.7c0.6,0.3,1.3,0.7,1.9,1c0,0.2,0.1,0.5,0.2,0.7c0.3,0.7,0.7,1.3,1,2
			c2.4,1.6,4.8,3.2,7.2,4.7c-0.6,2.5-1.2,5.1-1.9,7.6c-0.6-0.1-1.2-0.2-1.8-0.3l0,0c-0.7-1.5-1.3-3-2-4.4c-0.6,1.4-1.2,2.8-1.7,4.2
			c-1.2,0.4-2.4,0.8-3.7,1.2c-1.9-2.2-3.8-4.4-5.7-6.6c0.2-1.8,0.4-3.6,0.6-5.5c-0.2-2.2-0.3-4.4-0.5-6.6c-1.6-0.5-3.2-1-4.8-1.4
			c-0.6-0.1-1.1-0.3-1.7-0.4c-0.9-0.3-1.8-0.7-2.8-1l0,0c0.6-8.9,1.3-17.9,1.9-26.8C40.3,15.1,40.6,15.1,40.9,15L40.9,15z"/>
		<path id="Path_73_" class="st1" d="M58.1,81.4c-2.9-1.7-5.8-3.5-8.7-5.2c1.9-0.3,3.8-0.6,5.6-1c1.2-0.8,2.5-1.5,3.7-2.3
			c0-0.4,0-0.9,0-1.3c-3.2-0.6-6.4-1.2-9.6-1.8c1.4-1.8,2.7-3.6,4.1-5.3c1.2-0.7,2.5-1.3,3.7-2c1.2-0.1,2.4-0.1,3.6-0.2l0,0
			c0.9,1.3,1.8,2.6,2.6,3.9c0.7,0.6,1.3,1.1,2,1.7c0.6,0.8,1.2,1.6,1.9,2.4c-1,0.2-1.9,0.3-2.9,0.5c-1-0.1-2-0.2-2.9-0.3
			c1,0.6,2,1.1,3,1.7c0.3,2,0.7,4.1,1,6.1C63,79.3,60.5,80.4,58.1,81.4"/>
		<path id="Path_74_" class="st5" d="M55.2,42.3c1.2-0.5,2.4-0.9,3.6-1.4c0.3,0.1,0.6,0.2,0.9,0.2c0,0.6,0.1,1.2,0.1,1.9
			c2.1,0.6,4.3,1.3,6.4,1.9l3.8,2.6c-4.6,0.3-9.3,0.5-13.9,0.8c-0.1-0.2-0.1-0.5-0.2-0.7c0.2-0.8,0.3-1.6,0.5-2.4
			c-0.7,0.1-1.5,0.2-2.2,0.4c-0.3,0.1-0.6,0.2-0.9,0.3c-1.3-1-2.6-2-3.9-3c0.4-0.1,0.9-0.1,1.3-0.2c0.6,0.1,1.2,0.2,1.7,0.3
			C53.3,42.8,54.2,42.5,55.2,42.3"/>
		<path id="Path_75_" class="st8" d="M74.4,18.6c0.9,4.6,1.8,9.3,2.7,13.9C76.2,27.9,75.3,23.3,74.4,18.6"/>
		<path id="Path_76_" class="st8" d="M64.9,55c-2.4-1.6-4.8-3.2-7.2-4.7C60,51.8,62.4,53.4,64.9,55"/>
		<path id="Path_77_" class="st8" d="M69.8,47.6c-1.3-0.9-2.5-1.7-3.8-2.6c0-0.7,0-1.4,0-2.1c0.6,0,1.2,0,1.8,0c0.7,0.3,1.3,0.7,2,1
			l0,0c0.3,0.3,0.6,0.6,0.9,0.9c0.6,0.5,1.2,1.1,1.9,1.6C71.6,46.7,70.7,47.2,69.8,47.6"/>
		<path id="Path_78_" class="st10" d="M69.8,43.6c-0.7-0.3-1.3-0.7-2-1c-0.6-0.2-1.2-0.3-1.9-0.5c-2.1,0.2-4.2,0.5-6.3,0.7
			c0-0.6-0.1-1.2-0.1-1.9c3.4,0,6.8,0,10.2,0C69.7,41.8,69.7,42.7,69.8,43.6"/>
		<path id="Path_79_" class="st10" d="M63,66.2c-0.9-1.3-1.8-2.6-2.6-3.9c0.6,0.1,1.2,0.2,1.8,0.3c0.7,1.2,1.3,2.3,2,3.4
			C63.8,66.1,63.4,66.2,63,66.2"/>
		<path id="Path_80_" class="st8" d="M69.8,43.6c0-0.9-0.1-1.8-0.1-2.7c1.1,0.3,2.1,0.7,3.2,1c-0.4,0.5-0.9,1.1-1.3,1.6
			C71,43.6,70.4,43.6,69.8,43.6L69.8,43.6z"/>
		<path id="Path_81_" class="st9" d="M64.4,72.4c-1-0.6-2-1.1-3-1.7c1,0.1,2,0.2,2.9,0.3C64.3,71.5,64.3,72,64.4,72.4"/>
		<path id="Path_82_" class="st1" d="M68.3,71.6c0.5,0.5,0.8,0.7,1.1,1c-0.3,0.2-0.5,0.5-0.9,0.6c-0.2,0-0.6-0.3-0.7-0.5
			C67.9,72.5,68.1,72.2,68.3,71.6"/>
		<path id="Path_83_" class="st8" d="M74.4,14.9c0,0.6,0,1.2,0,1.8c-0.3-0.6-0.6-1.2-1-1.7C73.8,15,74.1,14.9,74.4,14.9"/>
		<path id="Path_84_" class="st10" d="M69.7,43.7c0.6,0,1.2,0,1.8,0c-0.3,0.3-0.6,0.6-0.9,0.9C70.3,44.3,70,44,69.7,43.7"/>
		<path id="Path_85_" class="st11" d="M43,62.5c-1.2-0.1-2.4-0.1-3.7-0.2c-0.4-0.9-0.8-1.8-1.3-2.8c0-0.6,0-1.1,0-1.7
			c-0.6-0.6-1.1-1.3-1.7-1.9c0-0.9-0.1-1.9-0.1-2.8c0.9-0.3,1.9-0.6,2.8-0.9c0.3,0.2,0.7,0.4,1,0.6c0,0,0.2-0.2,0.3-0.3
			c-0.4-0.2-0.7-0.3-1.1-0.5c0-0.9-0.1-1.9-0.1-2.8c2.2,0.3,4.4,0.7,6.6,1c-0.2,1.6-0.5,3.2-0.7,4.8C44.3,57.6,43.7,60.1,43,62.5"/>
		<path id="Path_86_" class="st10" d="M39.1,52.3c-0.9,0.3-1.9,0.6-2.8,0.9c-0.6-3.5-1.3-6.9-1.9-10.4c0.4,0.3,0.8,0.7,1.2,1
			c0.6,0,1.2,0.1,1.8,0.1c0.3,0.9,0.6,1.7,1,2.6c0.3,1,0.6,1.9,0.9,2.9c0,0.9,0.1,1.9,0.1,2.8L39.1,52.3z"/>
		<path id="Path_87_" class="st11" d="M38.1,59.5c0.4,0.9,0.8,1.8,1.3,2.8c-0.4,1.6-0.7,3.2-1.1,4.7L38.1,59.5z"/>
		<path id="Path_88_" class="st10" d="M36.2,55.8c0.6,0.6,1.1,1.3,1.7,1.9C37.4,57.1,36.8,56.5,36.2,55.8"/>
		<path id="Path_89_" class="st11" d="M37.1,43.8c-0.6,0-1.2-0.1-1.8-0.1c0.9-0.6,1.8-1.2,2.7-1.8l0,0
			C37.7,42.5,37.4,43.2,37.1,43.8"/>
		<path id="Path_90_" class="st11" d="M79,107.4c0.2-0.1,0.3-0.2,0.5-0.4C79.3,107.1,79.2,107.3,79,107.4
			C79.1,107.4,79,107.4,79,107.4"/>
		<path id="Path_91_" class="st7" d="M54.8,75.5c-1.9,0.3-3.8,0.6-5.6,1c-1.2-0.3-2.4-0.5-3.6-0.8c-0.3-0.6-0.7-1.3-1-1.9
			c0.3,0,0.7-0.1,1-0.1c0.7-0.1,1.4-0.1,2-0.2c2.2,0,4.3,0,6.5,0c0.2,0.1,0.5,0.2,0.7,0.3C54.8,74.4,54.8,74.9,54.8,75.5"/>
		<path id="Path_92_" class="st5" d="M45.7,73.3c-0.3,0-0.7,0.1-1,0.1c-0.7,0-1.5-0.1-2.2-0.1c-0.5-1.5-1-3-1.5-4.5
			c0.7-2.1,1.4-4.3,2-6.4c0.7-2.5,1.4-5,2.1-7.4c0.8,0.6,1.6,1.1,2.4,1.7c1.9,2.2,3.8,4.4,5.7,6.6c0,0.4,0.1,0.8,0.1,1.2
			c-1.4,1.8-2.7,3.6-4.1,5.3c-0.5,0-1,0-1.5,0c-0.3,0-0.7,0-1,0c0,0.3,0,0.6,0,0.9C46.3,71.5,46,72.4,45.7,73.3"/>
		<path id="Path_93_" class="st5" d="M3.1,106.9c-0.1-0.2-0.3-0.3-0.4-0.5c0,0,0.2-0.2,0.3-0.2C3,106.3,3.1,106.6,3.1,106.9"/>
		<path id="Path_94_" class="st5" d="M39,49.2c-0.3-1-0.6-1.9-0.9-2.9c0.9-1.2,1.9-2.4,2.8-3.5c0.6,0.1,1.1,0.3,1.7,0.4
			c1.6,0.5,3.2,1,4.8,1.4c0.2,2.2,0.3,4.4,0.5,6.6c-0.7-0.3-1.5-0.7-2.2-1C43.4,49.9,41.2,49.5,39,49.2"/>
		<path id="Path_95_" class="st10" d="M46.2,50.2c0.7,0.3,1.5,0.7,2.2,1c-0.2,1.8-0.4,3.6-0.6,5.5c-0.8-0.6-1.6-1.1-2.4-1.7
			C45.8,53.4,46,51.8,46.2,50.2"/>
		<path id="Path_96_" class="st8" d="M40.9,42.9C40,44,39,45.2,38.1,46.4c-0.3-0.9-0.6-1.7-1-2.6c0.3-0.6,0.6-1.3,1-1.9
			C39,42.2,40,42.5,40.9,42.9"/>
		<path id="Path_97_" class="st10" d="M60.5,62.1c-1.2,0.1-2.4,0.1-3.6,0.2l-0.2-0.4c0.6-1.4,1.2-2.8,1.7-4.2
			C59.1,59.2,59.8,60.7,60.5,62.1"/>
		<path id="Path_98_" class="st9" d="M56.6,62.3l0.2,0.4c-1.2,0.7-2.5,1.3-3.7,2c0-0.4-0.1-0.8-0.1-1.2
			C54.2,63.2,55.4,62.7,56.6,62.3"/>
		<path id="Path_99_" class="st8" d="M47.5,45.2c-1.6-0.5-3.2-1-4.8-1.4C44.3,44.2,45.9,44.7,47.5,45.2"/>
		<path id="Path_100_" class="st10" d="M54.1,46c0.7-0.1,1.5-0.2,2.2-0.4c-0.2,0.8-0.3,1.6-0.5,2.4c-0.6-0.3-1.3-0.7-1.9-1
			C54,46.6,54,46.3,54.1,46"/>
		<path id="Path_101_" class="st8" d="M48.3,39.1c0.3,0,0.5,0,0.8,0c0.4,1.2,0.8,2.3,1.2,3.5c-0.4,0.1-0.9,0.1-1.3,0.2
			C48.7,41.5,48.5,40.3,48.3,39.1"/>
		<path id="Path_103_" class="st11" d="M57.9,54.5c-0.1-0.2-0.2-0.3-0.3-0.5c0.2,0,0.5-0.1,0.7-0.1c0.1,0,0.2,0.2,0.2,0.3
			C58.4,54.4,58.2,54.5,57.9,54.5"/>
		<path id="Path_105_" class="st11" d="M53.9,45.6c-0.1,0.3-0.1,0.7-0.2,1c-0.3-0.3-0.5-0.5-0.8-0.7C53.3,45.8,53.6,45.7,53.9,45.6"
			/>
		<path id="Path_106_" class="st7" d="M47.4,69.8c0.5,0,1,0,1.5,0c3.2,0.6,6.4,1.2,9.6,1.8c-1.5,0.1-3,0.1-4.5,0.2
			c-2.2-0.1-4.4-0.2-6.7-0.3c-0.3-0.3-0.6-0.6-0.9-0.9c0-0.3,0-0.6,0-0.9L47.4,69.8z"/>
		<path id="Path_107_" class="st1" d="M53.9,71.9c1.8-0.1,3.6-0.2,5.5-0.3c0,0.5,0,1.1,0,1.6c-1.5,0.2-3,0.4-4.6,0.6
			c-0.3-0.1-0.6-0.3-0.8-0.3C53.9,73,53.9,72.5,53.9,71.9"/>
		<path id="Path_108_" class="st5" d="M54.8,74c1.2-0.2,2.5-0.3,3.7-0.5c-1.2,0.8-2.5,1.5-3.7,2.3C54.8,75.2,54.8,74.6,54.8,74"/>
		<path id="Path_109_" class="st1" d="M59.5,43.5c2.1-0.2,4.2-0.5,6.3-0.7c0,0.2,0.1,0.4,0.1,0.5c0,0.7,0,1.4,0,2.1
			C63.8,44.8,61.6,44.2,59.5,43.5"/>
		<path id="Path_110_" class="st1" d="M50.4,42.6c-0.4-1.2-0.8-2.3-1.2-3.5c1,1.3,1.9,2.5,2.9,3.8C51.6,42.8,51,42.7,50.4,42.6"/>
		<path id="Path_111_" class="st11" d="M66.1,43.3c0-0.2,0-0.4-0.1-0.5c0.6,0.2,1.2,0.3,1.9,0.5C67.3,43.3,66.7,43.3,66.1,43.3"/>
		<path id="Path_112_" class="st10" d="M39.2,52.1c0.4,0.2,0.7,0.3,1.1,0.5c-0.1,0.1-0.2,0.3-0.3,0.3c-0.3-0.2-0.7-0.4-1-0.6
			L39.2,52.1"/>
		<path id="Path_113_" class="st11" d="M54.1,71.9c0,0.4,0,0.9,0,1.3c-2.2,0-4.3,0-6.5,0c-0.1-0.5-0.2-1.1-0.2-1.6
			C49.6,71.7,51.8,71.8,54.1,71.9"/>
		<path id="Path_114_" class="st10" d="M47.3,71.7c0.1,0.5,0.2,1.1,0.2,1.6c-0.7,0.1-1.4,0.1-2,0.2c0.3-0.9,0.6-1.8,0.9-2.8
			C46.7,71,47,71.3,47.3,71.7"/>
		<path id="Path_115_" class="st10" d="M47.4,69.8h-1C46.8,69.8,47.1,69.8,47.4,69.8"/>
	</g>
	<rect id="Path_116_" x="11" y="113.9" class="st14" width="185" height="14.1"/>
	<rect id="Path_117_" x="228.7" y="56" class="st3" width="13.3" height="41.5"/>
	<path id="Path_118_" class="st15" d="M230,69c0,0,3.4-1,6-1s4,1,4,1s1.9,2.5,2,4c0,0.7,1.3,2.9,1,6s-1,3.5-3,5s-3.2,1.2-5,1
		s-4-1-4-1s-3-5.8-3-9S230,69,230,69z"/>
	<path id="Path_119_" class="st16" d="M228.3,70.1c0.3,0,0.7,0.1,1,0.1s4-1,4-1L238,70l5,1l1,4l-1,5c0,0-3.2,3.5-5,4.2s-1.1,0-1.7,0
		c-1.4-0.3-2.8-0.6-4.2-0.9c0,0-3.2-0.9-4.2-2.3s-1.8-5.8-1.8-5.8c0-0.7,0-1.3,0-2C226.9,72.1,227.6,71.1,228.3,70.1z"/>
	<path id="Path_120_" class="st17" d="M235.2,50.5l5,0.1L260.7,71v0.9c0,2.8,0.2,7.2,0.5,10v0.6l-19.7,19.7l0,0
		c-2.8-0.1-7.2-0.4-10-0.7l-1.2-0.1c0,0-18.7-18.3-20.1-20.1c-1.5-1.8,0,0,0,0c0-2.6-0.8-6.9-1.1-9.6c0,0-1,0.3,0.5-1.3
		c1.6-1.7,19.9-19.9,19.9-19.9H235.2z M235,56c0,0-2.3-0.4-3.9,0.9s-11.9,10.8-15.1,15s-0.5,0.8-0.5,0.8c-0.8,2.6,0.6,5.2,0.3,6.9
		c0,0-3.8-3.6,0.6,0.6s13.6,14.5,15.1,15.1s0,0,0,0c2.4,0.4,6.4,0.5,8.5,0.5c0,0-3,1.1,0,0s11.3-10.1,15-15c3.7-4.8,0.6-0.9,0.6-0.9
		c0.9-2.5-0.9-5.4-1-7.8c0,0,1.4,3.8,0,0c-1.4-3.8-13.1-14.4-15.3-15.3S235,56,235,56z"/>
	<path id="Path_121_" class="st18" d="M230,11c0,0,11-1,15,3s8.9,13.4,2,19s-21.6,2.6-27,0s0-8.4,0-13S230,11,230,11z"/>
	<path id="Path_122_" class="st18" d="M232.9,121.5c0,0,13.2-0.6,18.1,1.9c4.8,2.5,10.7,8.5,2.4,12c-8.3,3.5-26,1.6-32.5,0
		s0-5.3,0-8.2S232.9,121.5,232.9,121.5z"/>
	<path id="Path_123_" class="st19" d="M285,117l11,2l2,8l-0.8,7.7c0,0-26,1.6-32.5,0c-2-0.5-1.5-1.6-1.7-2.7s1.7-5.5,1.7-5.5
		L285,117z"/>
	<path id="Path_124_" class="st20" d="M235,36c3.3,0,6.9-2.8,9-5s2.5-3.4,2.5-6.5c0-3.2-2.4-5.4-4.5-7.5s-3.8-4-7-4
		c-3.6,0-6.9,3.4-9,6s-2.4,2.8-2.4,5.5c0,3-0.5,4.5,1.4,6.5S231.7,36,235,36z"/>
	<path id="Path_125_" class="st21" d="M236,33.4c3.2,0,5.1-1.1,7-3.4s3-4.2,3-6.5s-2.4-3.7-4-5.5s-3-4.4-6-4.4c-3.6,0-5.3,1.6-7,4.4
		s-2.9,3.6-2.9,5.5c0,2.2,0.7,3.9,1.9,5.5S232.7,33.4,236,33.4z"/>
</g>
</svg>
